M48
INCH
T53C0.020
T52C0.063
T51C0.055
T50C0.045
T49C0.043
T48C0.129
T47C0.048
%
T53
X005350Y032050
X005350Y031650
X005350Y027550
X005350Y027150
X005350Y023050
X005350Y022650
X005350Y018550
X005350Y018150
X005350Y014050
X005350Y013650
X005350Y009550
X005350Y009150
X005400Y005700
X005850Y005700
X006550Y036650
X006550Y036250
X006600Y015050
X007250Y032000
X007250Y027500
X007250Y023000
X007250Y018500
X007250Y014000
X007250Y009500
X007500Y034470
X007550Y031700
X007550Y027200
X007550Y022700
X007550Y018200
X007550Y013700
X007550Y009200
X007850Y032000
X007850Y027500
X007850Y023000
X007850Y018500
X007850Y014000
X007850Y009500
X008450Y031100
X008450Y026600
X008450Y022100
X008450Y017600
X008450Y013100
X008450Y008600
X008500Y032750
X008500Y030600
X008850Y032450
X008850Y015550
X008850Y014550
X009000Y030600
X009050Y037350
X009200Y032750
X009350Y030300
X009350Y015550
X009350Y014550
X009450Y037350
X009550Y032450
X009550Y031200
X009850Y037350
X009850Y015550
X009850Y014550
X009900Y032750
X009900Y031500
X010250Y032450
X010250Y031200
X010350Y015550
X010350Y014550
X010600Y032750
X010600Y030900
X010950Y032450
X010950Y030600
X011500Y012350
X011950Y012350
X012400Y012350
X013600Y025350
X013650Y016700
X013850Y035500
X013850Y033300
X014400Y035500
X014400Y033300
X014400Y012350
X014750Y029800
X014850Y012350
X014950Y035500
X014950Y033300
X015248Y029800
X015300Y012350
X015748Y029800
X016248Y029800
X017600Y012350
X017996Y024454
X018050Y012350
X018400Y028750
X018500Y012350
X018750Y029100
X019100Y037450
X019100Y037050
X019100Y036650
X019100Y029450
X019450Y029800
X019800Y013850
X019800Y012850
X020050Y035250
X020300Y013850
X020300Y012850
X020800Y013850
X020800Y012850
X021100Y032250
X021300Y013850
X021300Y012850
X021550Y029300
X021550Y024800
X021550Y020300
X021550Y015800
X021550Y011300
X021550Y006800
X022150Y028400
X022150Y023900
X022150Y019400
X022150Y014900
X022150Y010400
X022150Y005900
X022450Y028700
X022450Y024200
X022450Y019700
X022450Y015200
X022450Y010700
X022450Y006200
X022550Y034900
X022750Y028400
X022750Y023900
X022750Y019400
X022750Y014900
X022750Y010400
X022750Y005900
X023400Y013350
X023450Y032150
X024650Y028750
X024650Y028350
X024650Y024250
X024650Y023850
X024650Y019750
X024650Y019350
X024650Y015250
X024650Y014850
X024650Y010750
X024650Y010350
X024650Y006250
X024650Y005850
X026400Y034900
T49
X003412Y035966
X003412Y034234
T50
X016400Y013350
X016400Y012350
X016400Y011350
T47
X003200Y031200
X003200Y029200
X003200Y026700
X003200Y024700
X003200Y022200
X003200Y020200
X003200Y017700
X003200Y015700
X003200Y013200
X003200Y011200
X003200Y008700
X003200Y006700
X026800Y031200
X026800Y029200
X026800Y026700
X026800Y024700
X026800Y022200
X026800Y020200
X026800Y017700
X026800Y015700
X026800Y013200
X026800Y011200
X026800Y008700
X026800Y006700
T51
X009100Y003850
X011100Y003850
X013100Y003850
X016900Y003850
X018900Y003850
X020900Y003850
T52
X013050Y008020
X013050Y006680
X016950Y008020
X016950Y006680
T48
X002700Y039300
X002700Y002700
X027300Y039300
X027300Y002700
M30
