G04 start of page 7 for group -4062 idx -4062 *
G04 Title: (unknown), soldermask *
G04 Creator: pcb 4.0.2 *
G04 CreationDate: Sat May 14 18:30:59 2022 UTC *
G04 For: railfan *
G04 Format: Gerber/RS-274X *
G04 PCB-Dimensions (mil): 3000.00 4200.00 *
G04 PCB-Coordinate-Origin: lower left *
%MOIN*%
%FSLAX25Y25*%
%LNBOTTOMMASK*%
%ADD67C,0.0890*%
%ADD66C,0.0960*%
%ADD65C,0.0900*%
%ADD64C,0.0693*%
%ADD63C,0.2997*%
%ADD62C,0.0860*%
%ADD61C,0.0001*%
G54D61*G36*
X27700Y271300D02*Y262700D01*
X36300D01*
Y271300D01*
X27700D01*
G37*
G54D62*X32000Y247000D03*
G54D61*G36*
X27700Y226300D02*Y217700D01*
X36300D01*
Y226300D01*
X27700D01*
G37*
G54D62*X32000Y202000D03*
G54D61*G36*
X27700Y181300D02*Y172700D01*
X36300D01*
Y181300D01*
X27700D01*
G37*
G54D62*X32000Y157000D03*
G54D61*G36*
X27700Y136300D02*Y127700D01*
X36300D01*
Y136300D01*
X27700D01*
G37*
G54D62*X32000Y112000D03*
G54D63*X27000Y27000D03*
G54D61*G36*
X27700Y91300D02*Y82700D01*
X36300D01*
Y91300D01*
X27700D01*
G37*
G54D62*X32000Y67000D03*
G54D61*G36*
X263700Y296300D02*Y287700D01*
X272300D01*
Y296300D01*
X263700D01*
G37*
G54D62*X268000Y312000D03*
G54D63*X27000Y393000D03*
G54D64*X34122Y359661D03*
Y342339D03*
G54D61*G36*
X27700Y316300D02*Y307700D01*
X36300D01*
Y316300D01*
X27700D01*
G37*
G54D62*X32000Y292000D03*
G54D63*X273000Y393000D03*
G54D61*G36*
X263700Y251300D02*Y242700D01*
X272300D01*
Y251300D01*
X263700D01*
G37*
G54D62*X268000Y267000D03*
G54D61*G36*
X263700Y206300D02*Y197700D01*
X272300D01*
Y206300D01*
X263700D01*
G37*
G54D62*X268000Y222000D03*
G54D61*G36*
X263700Y161300D02*Y152700D01*
X272300D01*
Y161300D01*
X263700D01*
G37*
G54D62*X268000Y177000D03*
Y132000D03*
G54D61*G36*
X263700Y116300D02*Y107700D01*
X272300D01*
Y116300D01*
X263700D01*
G37*
G54D65*X164000Y133500D03*
Y123500D03*
G54D61*G36*
X159500Y118000D02*Y109000D01*
X168500D01*
Y118000D01*
X159500D01*
G37*
G36*
X164200Y43300D02*Y33700D01*
X173800D01*
Y43300D01*
X164200D01*
G37*
G54D66*X189000Y38500D03*
X209000D03*
G54D67*X130500Y80200D03*
Y66800D03*
X169500Y80200D03*
Y66800D03*
G54D61*G36*
X263700Y71300D02*Y62700D01*
X272300D01*
Y71300D01*
X263700D01*
G37*
G54D62*X268000Y87000D03*
G54D61*G36*
X86200Y43300D02*Y33700D01*
X95800D01*
Y43300D01*
X86200D01*
G37*
G54D66*X111000Y38500D03*
X131000D03*
G54D63*X273000Y27000D03*
M02*
