G04 start of page 10 for group -4015 idx -4015 *
G04 Title: (unknown), toppaste *
G04 Creator: pcb 4.0.2 *
G04 CreationDate: Sat May 14 18:30:59 2022 UTC *
G04 For: railfan *
G04 Format: Gerber/RS-274X *
G04 PCB-Dimensions (mil): 3000.00 4200.00 *
G04 PCB-Coordinate-Origin: lower left *
%MOIN*%
%FSLAX25Y25*%
%LNTOPPASTE*%
%ADD70C,0.0001*%
G54D70*G36*
X42882Y358185D02*Y356413D01*
X46819D01*
Y358185D01*
X42882D01*
G37*
G36*
Y355035D02*Y353264D01*
X46819D01*
Y355035D01*
X42882D01*
G37*
G36*
Y351886D02*Y350114D01*
X46819D01*
Y351886D01*
X42882D01*
G37*
G36*
Y348736D02*Y346965D01*
X46819D01*
Y348736D01*
X42882D01*
G37*
G36*
Y345587D02*Y343815D01*
X46819D01*
Y345587D01*
X42882D01*
G37*
G36*
X18374Y371276D02*Y364976D01*
X26248D01*
Y371276D01*
X18374D01*
G37*
G36*
Y337024D02*Y330724D01*
X26248D01*
Y337024D01*
X18374D01*
G37*
G36*
X40028Y371276D02*Y364976D01*
X47902D01*
Y371276D01*
X40028D01*
G37*
G36*
Y337024D02*Y330724D01*
X47902D01*
Y337024D01*
X40028D01*
G37*
G36*
X246150Y371100D02*X240650D01*
Y362800D01*
X246150D01*
Y371100D01*
G37*
G36*
Y335200D02*X240650D01*
Y326900D01*
X246150D01*
Y335200D01*
G37*
G36*
X228350Y371100D02*X222850D01*
Y362800D01*
X228350D01*
Y371100D01*
G37*
G36*
Y335200D02*X222850D01*
Y326900D01*
X228350D01*
Y335200D01*
G37*
G36*
X251548Y338602D02*Y333484D01*
X257452D01*
Y338602D01*
X251548D01*
G37*
G36*
Y331516D02*Y326398D01*
X257452D01*
Y331516D01*
X251548D01*
G37*
G36*
X213048Y338602D02*Y333484D01*
X218952D01*
Y338602D01*
X213048D01*
G37*
G36*
Y331516D02*Y326398D01*
X218952D01*
Y331516D01*
X213048D01*
G37*
G36*
X203048Y362102D02*Y356984D01*
X208952D01*
Y362102D01*
X203048D01*
G37*
G36*
Y355016D02*Y349898D01*
X208952D01*
Y355016D01*
X203048D01*
G37*
G36*
Y338602D02*Y333484D01*
X208952D01*
Y338602D01*
X203048D01*
G37*
G36*
Y331516D02*Y326398D01*
X208952D01*
Y331516D01*
X203048D01*
G37*
G36*
X284650Y371100D02*X279150D01*
Y362800D01*
X284650D01*
Y371100D01*
G37*
G36*
Y335200D02*X279150D01*
Y326900D01*
X284650D01*
Y335200D01*
G37*
G36*
X266850Y371100D02*X261350D01*
Y362800D01*
X266850D01*
Y371100D01*
G37*
G36*
Y335200D02*X261350D01*
Y326900D01*
X266850D01*
Y335200D01*
G37*
G36*
X243602Y288452D02*X238484D01*
Y282548D01*
X243602D01*
Y288452D01*
G37*
G36*
X236516D02*X231398D01*
Y282548D01*
X236516D01*
Y288452D01*
G37*
G36*
X61516Y321452D02*X56398D01*
Y315548D01*
X61516D01*
Y321452D01*
G37*
G36*
X68602D02*X63484D01*
Y315548D01*
X68602D01*
Y321452D01*
G37*
G36*
X141275Y256551D02*X138913D01*
Y250449D01*
X141275D01*
Y256551D01*
G37*
G36*
X145212D02*X142850D01*
Y250449D01*
X145212D01*
Y256551D01*
G37*
G36*
X149150D02*X146788D01*
Y250449D01*
X149150D01*
Y256551D01*
G37*
G36*
X153087D02*X150725D01*
Y250449D01*
X153087D01*
Y256551D01*
G37*
G36*
X137338Y241787D02*X132614D01*
Y234701D01*
X137338D01*
Y241787D01*
G37*
G36*
X159386D02*X154662D01*
Y234701D01*
X159386D01*
Y241787D01*
G37*
G36*
X155016Y278452D02*X149898D01*
Y272548D01*
X155016D01*
Y278452D01*
G37*
G36*
X162102D02*X156984D01*
Y272548D01*
X162102D01*
Y278452D01*
G37*
G36*
X150102Y268452D02*X144984D01*
Y262548D01*
X150102D01*
Y268452D01*
G37*
G36*
X143016D02*X137898D01*
Y262548D01*
X143016D01*
Y268452D01*
G37*
G36*
X101048Y369016D02*Y363898D01*
X106952D01*
Y369016D01*
X101048D01*
G37*
G36*
Y376102D02*Y370984D01*
X106952D01*
Y376102D01*
X101048D01*
G37*
G36*
X112598Y376283D02*Y372740D01*
X118504D01*
Y376283D01*
X112598D01*
G37*
G36*
Y371283D02*Y367740D01*
X118504D01*
Y371283D01*
X112598D01*
G37*
G36*
Y366283D02*Y362740D01*
X118504D01*
Y366283D01*
X112598D01*
G37*
G36*
Y361283D02*Y357740D01*
X118504D01*
Y361283D01*
X112598D01*
G37*
G36*
Y356283D02*Y352740D01*
X118504D01*
Y356283D01*
X112598D01*
G37*
G36*
Y351283D02*Y347740D01*
X118504D01*
Y351283D01*
X112598D01*
G37*
G36*
Y346283D02*Y342740D01*
X118504D01*
Y346283D01*
X112598D01*
G37*
G36*
Y341283D02*Y337740D01*
X118504D01*
Y341283D01*
X112598D01*
G37*
G36*
Y336283D02*Y332740D01*
X118504D01*
Y336283D01*
X112598D01*
G37*
G36*
Y331283D02*Y327740D01*
X118504D01*
Y331283D01*
X112598D01*
G37*
G36*
Y326283D02*Y322740D01*
X118504D01*
Y326283D01*
X112598D01*
G37*
G36*
Y321283D02*Y317740D01*
X118504D01*
Y321283D01*
X112598D01*
G37*
G36*
Y316283D02*Y312740D01*
X118504D01*
Y316283D01*
X112598D01*
G37*
G36*
Y311283D02*Y307740D01*
X118504D01*
Y311283D01*
X112598D01*
G37*
G36*
X124252Y307543D02*X120709D01*
Y301638D01*
X124252D01*
Y307543D01*
G37*
G36*
X129252D02*X125709D01*
Y301638D01*
X129252D01*
Y307543D01*
G37*
G36*
X134252D02*X130709D01*
Y301638D01*
X134252D01*
Y307543D01*
G37*
G36*
X139252D02*X135709D01*
Y301638D01*
X139252D01*
Y307543D01*
G37*
G36*
X144252D02*X140709D01*
Y301638D01*
X144252D01*
Y307543D01*
G37*
G36*
X149252D02*X145709D01*
Y301638D01*
X149252D01*
Y307543D01*
G37*
G36*
X154252D02*X150709D01*
Y301638D01*
X154252D01*
Y307543D01*
G37*
G36*
X159252D02*X155709D01*
Y301638D01*
X159252D01*
Y307543D01*
G37*
G36*
X164252D02*X160709D01*
Y301638D01*
X164252D01*
Y307543D01*
G37*
G36*
X169252D02*X165709D01*
Y301638D01*
X169252D01*
Y307543D01*
G37*
G36*
X174252D02*X170709D01*
Y301638D01*
X174252D01*
Y307543D01*
G37*
G36*
X179291D02*X175748D01*
Y301638D01*
X179291D01*
Y307543D01*
G37*
G36*
X181496Y376283D02*Y372740D01*
X187402D01*
Y376283D01*
X181496D01*
G37*
G36*
Y371283D02*Y367740D01*
X187402D01*
Y371283D01*
X181496D01*
G37*
G36*
Y366283D02*Y362740D01*
X187402D01*
Y366283D01*
X181496D01*
G37*
G36*
Y361283D02*Y357740D01*
X187402D01*
Y361283D01*
X181496D01*
G37*
G36*
Y356283D02*Y352740D01*
X187402D01*
Y356283D01*
X181496D01*
G37*
G36*
Y351283D02*Y347740D01*
X187402D01*
Y351283D01*
X181496D01*
G37*
G36*
Y346283D02*Y342740D01*
X187402D01*
Y346283D01*
X181496D01*
G37*
G36*
Y341283D02*Y337740D01*
X187402D01*
Y341283D01*
X181496D01*
G37*
G36*
Y336283D02*Y332740D01*
X187402D01*
Y336283D01*
X181496D01*
G37*
G36*
Y331283D02*Y327740D01*
X187402D01*
Y331283D01*
X181496D01*
G37*
G36*
Y326283D02*Y322740D01*
X187402D01*
Y326283D01*
X181496D01*
G37*
G36*
Y321283D02*Y317740D01*
X187402D01*
Y321283D01*
X181496D01*
G37*
G36*
Y316283D02*Y312740D01*
X187402D01*
Y316283D01*
X181496D01*
G37*
G36*
Y311283D02*Y307740D01*
X187402D01*
Y311283D01*
X181496D01*
G37*
G36*
X142323Y351402D02*Y347858D01*
X145866D01*
Y351402D01*
X142323D01*
G37*
G36*
X147835D02*Y347858D01*
X151378D01*
Y351402D01*
X147835D01*
G37*
G36*
X136811D02*Y347858D01*
X140354D01*
Y351402D01*
X136811D01*
G37*
G36*
X142323Y345890D02*Y342346D01*
X145866D01*
Y345890D01*
X142323D01*
G37*
G36*
X147835D02*Y342346D01*
X151378D01*
Y345890D01*
X147835D01*
G37*
G36*
X136811D02*Y342346D01*
X140354D01*
Y345890D01*
X136811D01*
G37*
G36*
X142323Y340378D02*Y336835D01*
X145866D01*
Y340378D01*
X142323D01*
G37*
G36*
X147835D02*Y336835D01*
X151378D01*
Y340378D01*
X147835D01*
G37*
G36*
X136811D02*Y336835D01*
X140354D01*
Y340378D01*
X136811D01*
G37*
G36*
X173276Y247807D02*X169732D01*
Y241902D01*
X173276D01*
Y247807D01*
G37*
G36*
X186268D02*X182724D01*
Y241902D01*
X186268D01*
Y247807D01*
G37*
G36*
X173276Y267098D02*X169732D01*
Y261193D01*
X173276D01*
Y267098D01*
G37*
G36*
X186268D02*X182724D01*
Y261193D01*
X186268D01*
Y267098D01*
G37*
G36*
X73500Y297000D02*Y295000D01*
X82000D01*
Y297000D01*
X73500D01*
G37*
G36*
Y302000D02*Y300000D01*
X82000D01*
Y302000D01*
X73500D01*
G37*
G36*
Y307000D02*Y305000D01*
X82000D01*
Y307000D01*
X73500D01*
G37*
G36*
Y312000D02*Y310000D01*
X82000D01*
Y312000D01*
X73500D01*
G37*
G36*
X53000D02*Y310000D01*
X61500D01*
Y312000D01*
X53000D01*
G37*
G36*
Y307000D02*Y305000D01*
X61500D01*
Y307000D01*
X53000D01*
G37*
G36*
Y302000D02*Y300000D01*
X61500D01*
Y302000D01*
X53000D01*
G37*
G36*
Y297000D02*Y295000D01*
X61500D01*
Y297000D01*
X53000D01*
G37*
G36*
X70750Y307830D02*X64250D01*
Y299170D01*
X70750D01*
Y307830D01*
G37*
G36*
X72225Y309605D02*X62775D01*
Y297395D01*
X72225D01*
Y309605D01*
G37*
G36*
X218000Y309000D02*Y307000D01*
X226500D01*
Y309000D01*
X218000D01*
G37*
G36*
Y304000D02*Y302000D01*
X226500D01*
Y304000D01*
X218000D01*
G37*
G36*
Y299000D02*Y297000D01*
X226500D01*
Y299000D01*
X218000D01*
G37*
G36*
Y294000D02*Y292000D01*
X226500D01*
Y294000D01*
X218000D01*
G37*
G36*
X238500D02*Y292000D01*
X247000D01*
Y294000D01*
X238500D01*
G37*
G36*
Y299000D02*Y297000D01*
X247000D01*
Y299000D01*
X238500D01*
G37*
G36*
Y304000D02*Y302000D01*
X247000D01*
Y304000D01*
X238500D01*
G37*
G36*
Y309000D02*Y307000D01*
X247000D01*
Y309000D01*
X238500D01*
G37*
G36*
X235750Y304830D02*X229250D01*
Y296170D01*
X235750D01*
Y304830D01*
G37*
G36*
X237225Y306605D02*X227775D01*
Y294395D01*
X237225D01*
Y306605D01*
G37*
G36*
X243602Y243452D02*X238484D01*
Y237548D01*
X243602D01*
Y243452D01*
G37*
G36*
X236516D02*X231398D01*
Y237548D01*
X236516D01*
Y243452D01*
G37*
G36*
X61516Y276452D02*X56398D01*
Y270548D01*
X61516D01*
Y276452D01*
G37*
G36*
X68602D02*X63484D01*
Y270548D01*
X68602D01*
Y276452D01*
G37*
G36*
X73500Y252000D02*Y250000D01*
X82000D01*
Y252000D01*
X73500D01*
G37*
G36*
Y257000D02*Y255000D01*
X82000D01*
Y257000D01*
X73500D01*
G37*
G36*
Y262000D02*Y260000D01*
X82000D01*
Y262000D01*
X73500D01*
G37*
G36*
Y267000D02*Y265000D01*
X82000D01*
Y267000D01*
X73500D01*
G37*
G36*
X53000D02*Y265000D01*
X61500D01*
Y267000D01*
X53000D01*
G37*
G36*
Y262000D02*Y260000D01*
X61500D01*
Y262000D01*
X53000D01*
G37*
G36*
Y257000D02*Y255000D01*
X61500D01*
Y257000D01*
X53000D01*
G37*
G36*
Y252000D02*Y250000D01*
X61500D01*
Y252000D01*
X53000D01*
G37*
G36*
X70750Y262830D02*X64250D01*
Y254170D01*
X70750D01*
Y262830D01*
G37*
G36*
X72225Y264605D02*X62775D01*
Y252395D01*
X72225D01*
Y264605D01*
G37*
G36*
X218000Y264000D02*Y262000D01*
X226500D01*
Y264000D01*
X218000D01*
G37*
G36*
Y259000D02*Y257000D01*
X226500D01*
Y259000D01*
X218000D01*
G37*
G36*
Y254000D02*Y252000D01*
X226500D01*
Y254000D01*
X218000D01*
G37*
G36*
Y249000D02*Y247000D01*
X226500D01*
Y249000D01*
X218000D01*
G37*
G36*
X238500D02*Y247000D01*
X247000D01*
Y249000D01*
X238500D01*
G37*
G36*
Y254000D02*Y252000D01*
X247000D01*
Y254000D01*
X238500D01*
G37*
G36*
Y259000D02*Y257000D01*
X247000D01*
Y259000D01*
X238500D01*
G37*
G36*
Y264000D02*Y262000D01*
X247000D01*
Y264000D01*
X238500D01*
G37*
G36*
X235750Y259830D02*X229250D01*
Y251170D01*
X235750D01*
Y259830D01*
G37*
G36*
X237225Y261605D02*X227775D01*
Y249395D01*
X237225D01*
Y261605D01*
G37*
G36*
X243602Y198452D02*X238484D01*
Y192548D01*
X243602D01*
Y198452D01*
G37*
G36*
X236516D02*X231398D01*
Y192548D01*
X236516D01*
Y198452D01*
G37*
G36*
X61516Y231452D02*X56398D01*
Y225548D01*
X61516D01*
Y231452D01*
G37*
G36*
X68602D02*X63484D01*
Y225548D01*
X68602D01*
Y231452D01*
G37*
G36*
X73500Y207000D02*Y205000D01*
X82000D01*
Y207000D01*
X73500D01*
G37*
G36*
Y212000D02*Y210000D01*
X82000D01*
Y212000D01*
X73500D01*
G37*
G36*
Y217000D02*Y215000D01*
X82000D01*
Y217000D01*
X73500D01*
G37*
G36*
Y222000D02*Y220000D01*
X82000D01*
Y222000D01*
X73500D01*
G37*
G36*
X53000D02*Y220000D01*
X61500D01*
Y222000D01*
X53000D01*
G37*
G36*
Y217000D02*Y215000D01*
X61500D01*
Y217000D01*
X53000D01*
G37*
G36*
Y212000D02*Y210000D01*
X61500D01*
Y212000D01*
X53000D01*
G37*
G36*
Y207000D02*Y205000D01*
X61500D01*
Y207000D01*
X53000D01*
G37*
G36*
X70750Y217830D02*X64250D01*
Y209170D01*
X70750D01*
Y217830D01*
G37*
G36*
X72225Y219605D02*X62775D01*
Y207395D01*
X72225D01*
Y219605D01*
G37*
G36*
X218000Y219000D02*Y217000D01*
X226500D01*
Y219000D01*
X218000D01*
G37*
G36*
Y214000D02*Y212000D01*
X226500D01*
Y214000D01*
X218000D01*
G37*
G36*
Y209000D02*Y207000D01*
X226500D01*
Y209000D01*
X218000D01*
G37*
G36*
Y204000D02*Y202000D01*
X226500D01*
Y204000D01*
X218000D01*
G37*
G36*
X238500D02*Y202000D01*
X247000D01*
Y204000D01*
X238500D01*
G37*
G36*
Y209000D02*Y207000D01*
X247000D01*
Y209000D01*
X238500D01*
G37*
G36*
Y214000D02*Y212000D01*
X247000D01*
Y214000D01*
X238500D01*
G37*
G36*
Y219000D02*Y217000D01*
X247000D01*
Y219000D01*
X238500D01*
G37*
G36*
X235750Y214830D02*X229250D01*
Y206170D01*
X235750D01*
Y214830D01*
G37*
G36*
X237225Y216605D02*X227775D01*
Y204395D01*
X237225D01*
Y216605D01*
G37*
G36*
X243602Y153452D02*X238484D01*
Y147548D01*
X243602D01*
Y153452D01*
G37*
G36*
X236516D02*X231398D01*
Y147548D01*
X236516D01*
Y153452D01*
G37*
G36*
X61516Y186452D02*X56398D01*
Y180548D01*
X61516D01*
Y186452D01*
G37*
G36*
X68602D02*X63484D01*
Y180548D01*
X68602D01*
Y186452D01*
G37*
G36*
X73500Y162000D02*Y160000D01*
X82000D01*
Y162000D01*
X73500D01*
G37*
G36*
Y167000D02*Y165000D01*
X82000D01*
Y167000D01*
X73500D01*
G37*
G36*
Y172000D02*Y170000D01*
X82000D01*
Y172000D01*
X73500D01*
G37*
G36*
Y177000D02*Y175000D01*
X82000D01*
Y177000D01*
X73500D01*
G37*
G36*
X53000D02*Y175000D01*
X61500D01*
Y177000D01*
X53000D01*
G37*
G36*
Y172000D02*Y170000D01*
X61500D01*
Y172000D01*
X53000D01*
G37*
G36*
Y167000D02*Y165000D01*
X61500D01*
Y167000D01*
X53000D01*
G37*
G36*
Y162000D02*Y160000D01*
X61500D01*
Y162000D01*
X53000D01*
G37*
G36*
X70750Y172830D02*X64250D01*
Y164170D01*
X70750D01*
Y172830D01*
G37*
G36*
X72225Y174605D02*X62775D01*
Y162395D01*
X72225D01*
Y174605D01*
G37*
G36*
X218000Y174000D02*Y172000D01*
X226500D01*
Y174000D01*
X218000D01*
G37*
G36*
Y169000D02*Y167000D01*
X226500D01*
Y169000D01*
X218000D01*
G37*
G36*
Y164000D02*Y162000D01*
X226500D01*
Y164000D01*
X218000D01*
G37*
G36*
Y159000D02*Y157000D01*
X226500D01*
Y159000D01*
X218000D01*
G37*
G36*
X238500D02*Y157000D01*
X247000D01*
Y159000D01*
X238500D01*
G37*
G36*
Y164000D02*Y162000D01*
X247000D01*
Y164000D01*
X238500D01*
G37*
G36*
Y169000D02*Y167000D01*
X247000D01*
Y169000D01*
X238500D01*
G37*
G36*
Y174000D02*Y172000D01*
X247000D01*
Y174000D01*
X238500D01*
G37*
G36*
X235750Y169830D02*X229250D01*
Y161170D01*
X235750D01*
Y169830D01*
G37*
G36*
X237225Y171605D02*X227775D01*
Y159395D01*
X237225D01*
Y171605D01*
G37*
G36*
X145516Y169952D02*X140398D01*
Y164048D01*
X145516D01*
Y169952D01*
G37*
G36*
X152602D02*X147484D01*
Y164048D01*
X152602D01*
Y169952D01*
G37*
G36*
X163016D02*X157898D01*
Y164048D01*
X163016D01*
Y169952D01*
G37*
G36*
X170102D02*X164984D01*
Y164048D01*
X170102D01*
Y169952D01*
G37*
G36*
X128048Y116973D02*Y111855D01*
X133952D01*
Y116973D01*
X128048D01*
G37*
G36*
Y124059D02*Y118941D01*
X133952D01*
Y124059D01*
X128048D01*
G37*
G36*
X111650Y108457D02*X105350D01*
Y95858D01*
X111650D01*
Y108457D01*
G37*
G36*
Y128142D02*X105350D01*
Y115543D01*
X111650D01*
Y128142D01*
G37*
G36*
X194650Y108457D02*X188350D01*
Y95858D01*
X194650D01*
Y108457D01*
G37*
G36*
Y128142D02*X188350D01*
Y115543D01*
X194650D01*
Y128142D01*
G37*
G36*
X61516Y141452D02*X56398D01*
Y135548D01*
X61516D01*
Y141452D01*
G37*
G36*
X68602D02*X63484D01*
Y135548D01*
X68602D01*
Y141452D01*
G37*
G36*
X243602Y108452D02*X238484D01*
Y102548D01*
X243602D01*
Y108452D01*
G37*
G36*
X236516D02*X231398D01*
Y102548D01*
X236516D01*
Y108452D01*
G37*
G36*
X218000Y129000D02*Y127000D01*
X226500D01*
Y129000D01*
X218000D01*
G37*
G36*
Y124000D02*Y122000D01*
X226500D01*
Y124000D01*
X218000D01*
G37*
G36*
Y119000D02*Y117000D01*
X226500D01*
Y119000D01*
X218000D01*
G37*
G36*
Y114000D02*Y112000D01*
X226500D01*
Y114000D01*
X218000D01*
G37*
G36*
X238500D02*Y112000D01*
X247000D01*
Y114000D01*
X238500D01*
G37*
G36*
Y119000D02*Y117000D01*
X247000D01*
Y119000D01*
X238500D01*
G37*
G36*
Y124000D02*Y122000D01*
X247000D01*
Y124000D01*
X238500D01*
G37*
G36*
Y129000D02*Y127000D01*
X247000D01*
Y129000D01*
X238500D01*
G37*
G36*
X235750Y124830D02*X229250D01*
Y116170D01*
X235750D01*
Y124830D01*
G37*
G36*
X237225Y126605D02*X227775D01*
Y114395D01*
X237225D01*
Y126605D01*
G37*
G36*
X73500Y117000D02*Y115000D01*
X82000D01*
Y117000D01*
X73500D01*
G37*
G36*
Y122000D02*Y120000D01*
X82000D01*
Y122000D01*
X73500D01*
G37*
G36*
Y127000D02*Y125000D01*
X82000D01*
Y127000D01*
X73500D01*
G37*
G36*
Y132000D02*Y130000D01*
X82000D01*
Y132000D01*
X73500D01*
G37*
G36*
X53000D02*Y130000D01*
X61500D01*
Y132000D01*
X53000D01*
G37*
G36*
Y127000D02*Y125000D01*
X61500D01*
Y127000D01*
X53000D01*
G37*
G36*
Y122000D02*Y120000D01*
X61500D01*
Y122000D01*
X53000D01*
G37*
G36*
Y117000D02*Y115000D01*
X61500D01*
Y117000D01*
X53000D01*
G37*
G36*
X70750Y127830D02*X64250D01*
Y119170D01*
X70750D01*
Y127830D01*
G37*
G36*
X72225Y129605D02*X62775D01*
Y117395D01*
X72225D01*
Y129605D01*
G37*
G36*
X61516Y96452D02*X56398D01*
Y90548D01*
X61516D01*
Y96452D01*
G37*
G36*
X68602D02*X63484D01*
Y90548D01*
X68602D01*
Y96452D01*
G37*
G36*
X243602Y63452D02*X238484D01*
Y57548D01*
X243602D01*
Y63452D01*
G37*
G36*
X236516D02*X231398D01*
Y57548D01*
X236516D01*
Y63452D01*
G37*
G36*
X73500Y72000D02*Y70000D01*
X82000D01*
Y72000D01*
X73500D01*
G37*
G36*
Y77000D02*Y75000D01*
X82000D01*
Y77000D01*
X73500D01*
G37*
G36*
Y82000D02*Y80000D01*
X82000D01*
Y82000D01*
X73500D01*
G37*
G36*
Y87000D02*Y85000D01*
X82000D01*
Y87000D01*
X73500D01*
G37*
G36*
X53000D02*Y85000D01*
X61500D01*
Y87000D01*
X53000D01*
G37*
G36*
Y82000D02*Y80000D01*
X61500D01*
Y82000D01*
X53000D01*
G37*
G36*
Y77000D02*Y75000D01*
X61500D01*
Y77000D01*
X53000D01*
G37*
G36*
Y72000D02*Y70000D01*
X61500D01*
Y72000D01*
X53000D01*
G37*
G36*
X70750Y82830D02*X64250D01*
Y74170D01*
X70750D01*
Y82830D01*
G37*
G36*
X72225Y84605D02*X62775D01*
Y72395D01*
X72225D01*
Y84605D01*
G37*
G36*
X218000Y84000D02*Y82000D01*
X226500D01*
Y84000D01*
X218000D01*
G37*
G36*
Y79000D02*Y77000D01*
X226500D01*
Y79000D01*
X218000D01*
G37*
G36*
Y74000D02*Y72000D01*
X226500D01*
Y74000D01*
X218000D01*
G37*
G36*
Y69000D02*Y67000D01*
X226500D01*
Y69000D01*
X218000D01*
G37*
G36*
X238500D02*Y67000D01*
X247000D01*
Y69000D01*
X238500D01*
G37*
G36*
Y74000D02*Y72000D01*
X247000D01*
Y74000D01*
X238500D01*
G37*
G36*
Y79000D02*Y77000D01*
X247000D01*
Y79000D01*
X238500D01*
G37*
G36*
Y84000D02*Y82000D01*
X247000D01*
Y84000D01*
X238500D01*
G37*
G36*
X235750Y79830D02*X229250D01*
Y71170D01*
X235750D01*
Y79830D01*
G37*
G36*
X237225Y81605D02*X227775D01*
Y69395D01*
X237225D01*
Y81605D01*
G37*
M02*
