G04 start of page 12 for group -3984 idx -3984 *
G04 Title: (unknown), fab *
G04 Creator: pcb 4.0.2 *
G04 CreationDate: Sat May 14 18:30:59 2022 UTC *
G04 For: railfan *
G04 Format: Gerber/RS-274X *
G04 PCB-Dimensions (mil): 3000.00 4200.00 *
G04 PCB-Coordinate-Origin: lower left *
%MOIN*%
%FSLAX25Y25*%
%LNFAB*%
%ADD74C,0.0100*%
%ADD73C,0.0075*%
%ADD72C,0.0060*%
%ADD71R,0.0080X0.0080*%
G54D71*X27000Y396200D02*Y389800D01*
X23800Y393000D02*X30200D01*
X25400Y394600D02*X28600D01*
X25400D02*Y391400D01*
X28600D01*
Y394600D02*Y391400D01*
X273000Y396200D02*Y389800D01*
X269800Y393000D02*X276200D01*
X271400Y394600D02*X274600D01*
X271400D02*Y391400D01*
X274600D01*
Y394600D02*Y391400D01*
X27000Y30200D02*Y23800D01*
X23800Y27000D02*X30200D01*
X25400Y28600D02*X28600D01*
X25400D02*Y25400D01*
X28600D01*
Y28600D02*Y25400D01*
X273000Y30200D02*Y23800D01*
X269800Y27000D02*X276200D01*
X271400Y28600D02*X274600D01*
X271400D02*Y25400D01*
X274600D01*
Y28600D02*Y25400D01*
X15000Y434450D02*Y428050D01*
X11800Y431250D02*X18200D01*
X13400Y432850D02*X16600D01*
X13400D02*Y429650D01*
X16600D01*
Y432850D02*Y429650D01*
G54D72*X135000Y433500D02*X136500Y430500D01*
X138000Y433500D01*
X136500Y430500D02*Y427500D01*
X139800Y430800D02*X142050D01*
X139800Y427500D02*X142800D01*
X139800Y433500D02*Y427500D01*
Y433500D02*X142800D01*
X147600D02*X148350Y432750D01*
X145350Y433500D02*X147600D01*
X144600Y432750D02*X145350Y433500D01*
X144600Y432750D02*Y431250D01*
X145350Y430500D01*
X147600D01*
X148350Y429750D01*
Y428250D01*
X147600Y427500D02*X148350Y428250D01*
X145350Y427500D02*X147600D01*
X144600Y428250D02*X145350Y427500D01*
X98000Y429750D02*X101000Y433500D01*
X98000Y429750D02*X101750D01*
X101000Y433500D02*Y427500D01*
X45000Y428250D02*X45750Y427500D01*
X45000Y432750D02*Y428250D01*
Y432750D02*X45750Y433500D01*
X47250D01*
X48000Y432750D01*
Y428250D01*
X47250Y427500D02*X48000Y428250D01*
X45750Y427500D02*X47250D01*
X45000Y429000D02*X48000Y432000D01*
X49800Y427500D02*X50550D01*
X52350Y432300D02*X53550Y433500D01*
Y427500D01*
X52350D02*X54600D01*
X56400Y432750D02*X57150Y433500D01*
X59400D01*
X60150Y432750D01*
Y431250D01*
X56400Y427500D02*X60150Y431250D01*
X56400Y427500D02*X60150D01*
X62700D02*X64950Y430500D01*
Y432750D02*Y430500D01*
X64200Y433500D02*X64950Y432750D01*
X62700Y433500D02*X64200D01*
X61950Y432750D02*X62700Y433500D01*
X61950Y432750D02*Y431250D01*
X62700Y430500D01*
X64950D01*
X130500Y80200D02*Y77000D01*
Y80200D02*X133273Y81800D01*
X130500Y80200D02*X127727Y81800D01*
X128900Y80200D02*G75*G03X132100Y80200I1600J0D01*G01*
G75*G03X128900Y80200I-1600J0D01*G01*
X130500Y66800D02*Y63600D01*
Y66800D02*X133273Y68400D01*
X130500Y66800D02*X127727Y68400D01*
X128900Y66800D02*G75*G03X132100Y66800I1600J0D01*G01*
G75*G03X128900Y66800I-1600J0D01*G01*
X169500Y80200D02*Y77000D01*
Y80200D02*X172273Y81800D01*
X169500Y80200D02*X166727Y81800D01*
X167900Y80200D02*G75*G03X171100Y80200I1600J0D01*G01*
G75*G03X167900Y80200I-1600J0D01*G01*
X169500Y66800D02*Y63600D01*
Y66800D02*X172273Y68400D01*
X169500Y66800D02*X166727Y68400D01*
X167900Y66800D02*G75*G03X171100Y66800I1600J0D01*G01*
G75*G03X167900Y66800I-1600J0D01*G01*
X15000Y446250D02*Y443050D01*
Y446250D02*X17773Y447850D01*
X15000Y446250D02*X12227Y447850D01*
X13400Y446250D02*G75*G03X16600Y446250I1600J0D01*G01*
G75*G03X13400Y446250I-1600J0D01*G01*
X135000Y448500D02*X136500Y445500D01*
X138000Y448500D01*
X136500Y445500D02*Y442500D01*
X139800Y445800D02*X142050D01*
X139800Y442500D02*X142800D01*
X139800Y448500D02*Y442500D01*
Y448500D02*X142800D01*
X147600D02*X148350Y447750D01*
X145350Y448500D02*X147600D01*
X144600Y447750D02*X145350Y448500D01*
X144600Y447750D02*Y446250D01*
X145350Y445500D01*
X147600D01*
X148350Y444750D01*
Y443250D01*
X147600Y442500D02*X148350Y443250D01*
X145350Y442500D02*X147600D01*
X144600Y443250D02*X145350Y442500D01*
X98000Y444750D02*X101000Y448500D01*
X98000Y444750D02*X101750D01*
X101000Y448500D02*Y442500D01*
X45000Y443250D02*X45750Y442500D01*
X45000Y447750D02*Y443250D01*
Y447750D02*X45750Y448500D01*
X47250D01*
X48000Y447750D01*
Y443250D01*
X47250Y442500D02*X48000Y443250D01*
X45750Y442500D02*X47250D01*
X45000Y444000D02*X48000Y447000D01*
X49800Y442500D02*X50550D01*
X52350Y443250D02*X53100Y442500D01*
X52350Y447750D02*Y443250D01*
Y447750D02*X53100Y448500D01*
X54600D01*
X55350Y447750D01*
Y443250D01*
X54600Y442500D02*X55350Y443250D01*
X53100Y442500D02*X54600D01*
X52350Y444000D02*X55350Y447000D01*
X59400Y448500D02*X60150Y447750D01*
X57900Y448500D02*X59400D01*
X57150Y447750D02*X57900Y448500D01*
X57150Y447750D02*Y443250D01*
X57900Y442500D01*
X59400Y445800D02*X60150Y445050D01*
X57150Y445800D02*X59400D01*
X57900Y442500D02*X59400D01*
X60150Y443250D01*
Y445050D02*Y443250D01*
X61950Y447750D02*X62700Y448500D01*
X64200D01*
X64950Y447750D01*
X64200Y442500D02*X64950Y443250D01*
X62700Y442500D02*X64200D01*
X61950Y443250D02*X62700Y442500D01*
Y445800D02*X64200D01*
X64950Y447750D02*Y446550D01*
Y445050D02*Y443250D01*
Y445050D02*X64200Y445800D01*
X64950Y446550D02*X64200Y445800D01*
X167400Y40100D02*X170600D01*
X167400D02*Y36900D01*
X170600D01*
Y40100D02*Y36900D01*
X187400Y40100D02*X190600D01*
X187400D02*Y36900D01*
X190600D01*
Y40100D02*Y36900D01*
X207400Y40100D02*X210600D01*
X207400D02*Y36900D01*
X210600D01*
Y40100D02*Y36900D01*
X89400Y40100D02*X92600D01*
X89400D02*Y36900D01*
X92600D01*
Y40100D02*Y36900D01*
X109400Y40100D02*X112600D01*
X109400D02*Y36900D01*
X112600D01*
Y40100D02*Y36900D01*
X129400Y40100D02*X132600D01*
X129400D02*Y36900D01*
X132600D01*
Y40100D02*Y36900D01*
X13400Y462850D02*X16600D01*
X13400D02*Y459650D01*
X16600D01*
Y462850D02*Y459650D01*
X135000Y463500D02*X136500Y460500D01*
X138000Y463500D01*
X136500Y460500D02*Y457500D01*
X139800Y460800D02*X142050D01*
X139800Y457500D02*X142800D01*
X139800Y463500D02*Y457500D01*
Y463500D02*X142800D01*
X147600D02*X148350Y462750D01*
X145350Y463500D02*X147600D01*
X144600Y462750D02*X145350Y463500D01*
X144600Y462750D02*Y461250D01*
X145350Y460500D01*
X147600D01*
X148350Y459750D01*
Y458250D01*
X147600Y457500D02*X148350Y458250D01*
X145350Y457500D02*X147600D01*
X144600Y458250D02*X145350Y457500D01*
X100250Y463500D02*X101000Y462750D01*
X98750Y463500D02*X100250D01*
X98000Y462750D02*X98750Y463500D01*
X98000Y462750D02*Y458250D01*
X98750Y457500D01*
X100250Y460800D02*X101000Y460050D01*
X98000Y460800D02*X100250D01*
X98750Y457500D02*X100250D01*
X101000Y458250D01*
Y460050D02*Y458250D01*
X45000D02*X45750Y457500D01*
X45000Y462750D02*Y458250D01*
Y462750D02*X45750Y463500D01*
X47250D01*
X48000Y462750D01*
Y458250D01*
X47250Y457500D02*X48000Y458250D01*
X45750Y457500D02*X47250D01*
X45000Y459000D02*X48000Y462000D01*
X49800Y457500D02*X50550D01*
X52350Y458250D02*X53100Y457500D01*
X52350Y462750D02*Y458250D01*
Y462750D02*X53100Y463500D01*
X54600D01*
X55350Y462750D01*
Y458250D01*
X54600Y457500D02*X55350Y458250D01*
X53100Y457500D02*X54600D01*
X52350Y459000D02*X55350Y462000D01*
X57150Y463500D02*X60150D01*
X57150D02*Y460500D01*
X57900Y461250D01*
X59400D01*
X60150Y460500D01*
Y458250D01*
X59400Y457500D02*X60150Y458250D01*
X57900Y457500D02*X59400D01*
X57150Y458250D02*X57900Y457500D01*
X61950Y463500D02*X64950D01*
X61950D02*Y460500D01*
X62700Y461250D01*
X64200D01*
X64950Y460500D01*
Y458250D01*
X64200Y457500D02*X64950Y458250D01*
X62700Y457500D02*X64200D01*
X61950Y458250D02*X62700Y457500D01*
X31200Y312000D02*G75*G03X32800Y312000I800J0D01*G01*
G75*G03X31200Y312000I-800J0D01*G01*
Y292000D02*G75*G03X32800Y292000I800J0D01*G01*
G75*G03X31200Y292000I-800J0D01*G01*
X267200D02*G75*G03X268800Y292000I800J0D01*G01*
G75*G03X267200Y292000I-800J0D01*G01*
Y312000D02*G75*G03X268800Y312000I800J0D01*G01*
G75*G03X267200Y312000I-800J0D01*G01*
X31200Y267000D02*G75*G03X32800Y267000I800J0D01*G01*
G75*G03X31200Y267000I-800J0D01*G01*
Y247000D02*G75*G03X32800Y247000I800J0D01*G01*
G75*G03X31200Y247000I-800J0D01*G01*
X267200D02*G75*G03X268800Y247000I800J0D01*G01*
G75*G03X267200Y247000I-800J0D01*G01*
Y267000D02*G75*G03X268800Y267000I800J0D01*G01*
G75*G03X267200Y267000I-800J0D01*G01*
X31200Y222000D02*G75*G03X32800Y222000I800J0D01*G01*
G75*G03X31200Y222000I-800J0D01*G01*
Y202000D02*G75*G03X32800Y202000I800J0D01*G01*
G75*G03X31200Y202000I-800J0D01*G01*
X267200D02*G75*G03X268800Y202000I800J0D01*G01*
G75*G03X267200Y202000I-800J0D01*G01*
Y222000D02*G75*G03X268800Y222000I800J0D01*G01*
G75*G03X267200Y222000I-800J0D01*G01*
X31200Y177000D02*G75*G03X32800Y177000I800J0D01*G01*
G75*G03X31200Y177000I-800J0D01*G01*
Y157000D02*G75*G03X32800Y157000I800J0D01*G01*
G75*G03X31200Y157000I-800J0D01*G01*
X267200D02*G75*G03X268800Y157000I800J0D01*G01*
G75*G03X267200Y157000I-800J0D01*G01*
Y177000D02*G75*G03X268800Y177000I800J0D01*G01*
G75*G03X267200Y177000I-800J0D01*G01*
X31200Y132000D02*G75*G03X32800Y132000I800J0D01*G01*
G75*G03X31200Y132000I-800J0D01*G01*
Y112000D02*G75*G03X32800Y112000I800J0D01*G01*
G75*G03X31200Y112000I-800J0D01*G01*
X267200D02*G75*G03X268800Y112000I800J0D01*G01*
G75*G03X267200Y112000I-800J0D01*G01*
Y132000D02*G75*G03X268800Y132000I800J0D01*G01*
G75*G03X267200Y132000I-800J0D01*G01*
X31200Y87000D02*G75*G03X32800Y87000I800J0D01*G01*
G75*G03X31200Y87000I-800J0D01*G01*
Y67000D02*G75*G03X32800Y67000I800J0D01*G01*
G75*G03X31200Y67000I-800J0D01*G01*
X267200D02*G75*G03X268800Y67000I800J0D01*G01*
G75*G03X267200Y67000I-800J0D01*G01*
Y87000D02*G75*G03X268800Y87000I800J0D01*G01*
G75*G03X267200Y87000I-800J0D01*G01*
X14200Y476250D02*G75*G03X15800Y476250I800J0D01*G01*
G75*G03X14200Y476250I-800J0D01*G01*
X135000Y478500D02*X136500Y475500D01*
X138000Y478500D01*
X136500Y475500D02*Y472500D01*
X139800Y475800D02*X142050D01*
X139800Y472500D02*X142800D01*
X139800Y478500D02*Y472500D01*
Y478500D02*X142800D01*
X147600D02*X148350Y477750D01*
X145350Y478500D02*X147600D01*
X144600Y477750D02*X145350Y478500D01*
X144600Y477750D02*Y476250D01*
X145350Y475500D01*
X147600D01*
X148350Y474750D01*
Y473250D01*
X147600Y472500D02*X148350Y473250D01*
X145350Y472500D02*X147600D01*
X144600Y473250D02*X145350Y472500D01*
X98000Y477750D02*X98750Y478500D01*
X101000D01*
X101750Y477750D01*
Y476250D01*
X98000Y472500D02*X101750Y476250D01*
X98000Y472500D02*X101750D01*
X103550Y474750D02*X106550Y478500D01*
X103550Y474750D02*X107300D01*
X106550Y478500D02*Y472500D01*
X45000Y473250D02*X45750Y472500D01*
X45000Y477750D02*Y473250D01*
Y477750D02*X45750Y478500D01*
X47250D01*
X48000Y477750D01*
Y473250D01*
X47250Y472500D02*X48000Y473250D01*
X45750Y472500D02*X47250D01*
X45000Y474000D02*X48000Y477000D01*
X49800Y472500D02*X50550D01*
X52350Y473250D02*X53100Y472500D01*
X52350Y477750D02*Y473250D01*
Y477750D02*X53100Y478500D01*
X54600D01*
X55350Y477750D01*
Y473250D01*
X54600Y472500D02*X55350Y473250D01*
X53100Y472500D02*X54600D01*
X52350Y474000D02*X55350Y477000D01*
X57150Y474750D02*X60150Y478500D01*
X57150Y474750D02*X60900D01*
X60150Y478500D02*Y472500D01*
X62700Y473250D02*X63450Y472500D01*
X62700Y474450D02*Y473250D01*
Y474450D02*X63750Y475500D01*
X64650D01*
X65700Y474450D01*
Y473250D01*
X64950Y472500D02*X65700Y473250D01*
X63450Y472500D02*X64950D01*
X62700Y476550D02*X63750Y475500D01*
X62700Y477750D02*Y476550D01*
Y477750D02*X63450Y478500D01*
X64950D01*
X65700Y477750D01*
Y476550D01*
X64650Y475500D02*X65700Y476550D01*
X162800Y134700D02*X165200Y132300D01*
X162800D02*X165200Y134700D01*
X162800Y124700D02*X165200Y122300D01*
X162800D02*X165200Y124700D01*
X162800Y114700D02*X165200Y112300D01*
X162800D02*X165200Y114700D01*
X13800Y492450D02*X16200Y490050D01*
X13800D02*X16200Y492450D01*
X135000Y493500D02*X136500Y490500D01*
X138000Y493500D01*
X136500Y490500D02*Y487500D01*
X139800Y490800D02*X142050D01*
X139800Y487500D02*X142800D01*
X139800Y493500D02*Y487500D01*
Y493500D02*X142800D01*
X147600D02*X148350Y492750D01*
X145350Y493500D02*X147600D01*
X144600Y492750D02*X145350Y493500D01*
X144600Y492750D02*Y491250D01*
X145350Y490500D01*
X147600D01*
X148350Y489750D01*
Y488250D01*
X147600Y487500D02*X148350Y488250D01*
X145350Y487500D02*X147600D01*
X144600Y488250D02*X145350Y487500D01*
X98000Y492750D02*X98750Y493500D01*
X100250D01*
X101000Y492750D01*
X100250Y487500D02*X101000Y488250D01*
X98750Y487500D02*X100250D01*
X98000Y488250D02*X98750Y487500D01*
Y490800D02*X100250D01*
X101000Y492750D02*Y491550D01*
Y490050D02*Y488250D01*
Y490050D02*X100250Y490800D01*
X101000Y491550D02*X100250Y490800D01*
X45000Y488250D02*X45750Y487500D01*
X45000Y492750D02*Y488250D01*
Y492750D02*X45750Y493500D01*
X47250D01*
X48000Y492750D01*
Y488250D01*
X47250Y487500D02*X48000Y488250D01*
X45750Y487500D02*X47250D01*
X45000Y489000D02*X48000Y492000D01*
X49800Y487500D02*X50550D01*
X52350Y488250D02*X53100Y487500D01*
X52350Y492750D02*Y488250D01*
Y492750D02*X53100Y493500D01*
X54600D01*
X55350Y492750D01*
Y488250D01*
X54600Y487500D02*X55350Y488250D01*
X53100Y487500D02*X54600D01*
X52350Y489000D02*X55350Y492000D01*
X57150Y489750D02*X60150Y493500D01*
X57150Y489750D02*X60900D01*
X60150Y493500D02*Y487500D01*
X62700Y493500D02*X65700D01*
X62700D02*Y490500D01*
X63450Y491250D01*
X64950D01*
X65700Y490500D01*
Y488250D01*
X64950Y487500D02*X65700Y488250D01*
X63450Y487500D02*X64950D01*
X62700Y488250D02*X63450Y487500D01*
X34122Y361261D02*Y358061D01*
X32522Y359661D02*X35722D01*
X34122Y343939D02*Y340739D01*
X32522Y342339D02*X35722D01*
X15000Y507850D02*Y504650D01*
X13400Y506250D02*X16600D01*
X135000Y508500D02*X136500Y505500D01*
X138000Y508500D01*
X136500Y505500D02*Y502500D01*
X139800Y505800D02*X142050D01*
X139800Y502500D02*X142800D01*
X139800Y508500D02*Y502500D01*
Y508500D02*X142800D01*
X147600D02*X148350Y507750D01*
X145350Y508500D02*X147600D01*
X144600Y507750D02*X145350Y508500D01*
X144600Y507750D02*Y506250D01*
X145350Y505500D01*
X147600D01*
X148350Y504750D01*
Y503250D01*
X147600Y502500D02*X148350Y503250D01*
X145350Y502500D02*X147600D01*
X144600Y503250D02*X145350Y502500D01*
X98000Y507750D02*X98750Y508500D01*
X101000D01*
X101750Y507750D01*
Y506250D01*
X98000Y502500D02*X101750Y506250D01*
X98000Y502500D02*X101750D01*
X45000Y503250D02*X45750Y502500D01*
X45000Y507750D02*Y503250D01*
Y507750D02*X45750Y508500D01*
X47250D01*
X48000Y507750D01*
Y503250D01*
X47250Y502500D02*X48000Y503250D01*
X45750Y502500D02*X47250D01*
X45000Y504000D02*X48000Y507000D01*
X49800Y502500D02*X50550D01*
X52350Y503250D02*X53100Y502500D01*
X52350Y507750D02*Y503250D01*
Y507750D02*X53100Y508500D01*
X54600D01*
X55350Y507750D01*
Y503250D01*
X54600Y502500D02*X55350Y503250D01*
X53100Y502500D02*X54600D01*
X52350Y504000D02*X55350Y507000D01*
X57150Y504750D02*X60150Y508500D01*
X57150Y504750D02*X60900D01*
X60150Y508500D02*Y502500D01*
X62700Y507750D02*X63450Y508500D01*
X64950D01*
X65700Y507750D01*
X64950Y502500D02*X65700Y503250D01*
X63450Y502500D02*X64950D01*
X62700Y503250D02*X63450Y502500D01*
Y505800D02*X64950D01*
X65700Y507750D02*Y506550D01*
Y505050D02*Y503250D01*
Y505050D02*X64950Y505800D01*
X65700Y506550D02*X64950Y505800D01*
X227500Y284000D02*Y282400D01*
Y284000D02*X228887Y284800D01*
X227500Y284000D02*X226113Y284800D01*
X224500Y287000D02*Y285400D01*
Y287000D02*X225887Y287800D01*
X224500Y287000D02*X223113Y287800D01*
X221500Y284000D02*Y282400D01*
Y284000D02*X222887Y284800D01*
X221500Y284000D02*X220113Y284800D01*
X246500Y283500D02*Y281900D01*
Y283500D02*X247887Y284300D01*
X246500Y283500D02*X245113Y284300D01*
X246500Y287500D02*Y285900D01*
Y287500D02*X247887Y288300D01*
X246500Y287500D02*X245113Y288300D01*
X72500Y320000D02*Y318400D01*
Y320000D02*X73887Y320800D01*
X72500Y320000D02*X71113Y320800D01*
X75500Y317000D02*Y315400D01*
Y317000D02*X76887Y317800D01*
X75500Y317000D02*X74113Y317800D01*
X78500Y320000D02*Y318400D01*
Y320000D02*X79887Y320800D01*
X78500Y320000D02*X77113Y320800D01*
X53500Y320500D02*Y318900D01*
Y320500D02*X54887Y321300D01*
X53500Y320500D02*X52113Y321300D01*
X53500Y316500D02*Y314900D01*
Y316500D02*X54887Y317300D01*
X53500Y316500D02*X52113Y317300D01*
X138500Y355000D02*Y353400D01*
Y355000D02*X139887Y355800D01*
X138500Y355000D02*X137113Y355800D01*
X144000Y355000D02*Y353400D01*
Y355000D02*X145387Y355800D01*
X144000Y355000D02*X142613Y355800D01*
X149500Y355000D02*Y353400D01*
Y355000D02*X150887Y355800D01*
X149500Y355000D02*X148113Y355800D01*
X149500Y333000D02*Y331400D01*
Y333000D02*X150887Y333800D01*
X149500Y333000D02*X148113Y333800D01*
X144000Y333000D02*Y331400D01*
Y333000D02*X145387Y333800D01*
X144000Y333000D02*X142613Y333800D01*
X138500Y333000D02*Y331400D01*
Y333000D02*X139887Y333800D01*
X138500Y333000D02*X137113Y333800D01*
X98500Y373500D02*Y371900D01*
Y373500D02*X99887Y374300D01*
X98500Y373500D02*X97113Y374300D01*
X94500Y373500D02*Y371900D01*
Y373500D02*X95887Y374300D01*
X94500Y373500D02*X93113Y374300D01*
X90500Y373500D02*Y371900D01*
Y373500D02*X91887Y374300D01*
X90500Y373500D02*X89113Y374300D01*
X200500Y352500D02*Y350900D01*
Y352500D02*X201887Y353300D01*
X200500Y352500D02*X199113Y353300D01*
X225500Y349000D02*Y347400D01*
Y349000D02*X226887Y349800D01*
X225500Y349000D02*X224113Y349800D01*
X264000Y349000D02*Y347400D01*
Y349000D02*X265387Y349800D01*
X264000Y349000D02*X262613Y349800D01*
X84500Y311000D02*Y309400D01*
Y311000D02*X85887Y311800D01*
X84500Y311000D02*X83113Y311800D01*
X215500Y293000D02*Y291400D01*
Y293000D02*X216887Y293800D01*
X215500Y293000D02*X214113Y293800D01*
X234500Y321500D02*Y319900D01*
Y321500D02*X235887Y322300D01*
X234500Y321500D02*X233113Y322300D01*
X65500Y366500D02*Y364900D01*
Y366500D02*X66887Y367300D01*
X65500Y366500D02*X64113Y367300D01*
X65500Y362500D02*Y360900D01*
Y362500D02*X66887Y363300D01*
X65500Y362500D02*X64113Y363300D01*
X75000Y344701D02*Y343101D01*
Y344701D02*X76387Y345501D01*
X75000Y344701D02*X73613Y345501D01*
X191000Y374500D02*Y372900D01*
Y374500D02*X192387Y375300D01*
X191000Y374500D02*X189613Y375300D01*
X191000Y370500D02*Y368900D01*
Y370500D02*X192387Y371300D01*
X191000Y370500D02*X189613Y371300D01*
X191000Y366500D02*Y364900D01*
Y366500D02*X192387Y367300D01*
X191000Y366500D02*X189613Y367300D01*
X136000Y253500D02*Y251900D01*
Y253500D02*X137387Y254300D01*
X136000Y253500D02*X134613Y254300D01*
X211000Y322500D02*Y320900D01*
Y322500D02*X212387Y323300D01*
X211000Y322500D02*X209613Y323300D01*
X179957Y244543D02*Y242943D01*
Y244543D02*X181344Y245343D01*
X179957Y244543D02*X178570Y245343D01*
X194500Y298000D02*Y296400D01*
Y298000D02*X195887Y298800D01*
X194500Y298000D02*X193113Y298800D01*
X162480Y298000D02*Y296400D01*
Y298000D02*X163867Y298800D01*
X162480Y298000D02*X161094Y298800D01*
X152480Y298000D02*Y296400D01*
Y298000D02*X153867Y298800D01*
X152480Y298000D02*X151094Y298800D01*
X191000Y294500D02*Y292900D01*
Y294500D02*X192387Y295300D01*
X191000Y294500D02*X189613Y295300D01*
X147500Y298000D02*Y296400D01*
Y298000D02*X148887Y298800D01*
X147500Y298000D02*X146113Y298800D01*
X187500Y291000D02*Y289400D01*
Y291000D02*X188887Y291800D01*
X187500Y291000D02*X186113Y291800D01*
X184000Y287500D02*Y285900D01*
Y287500D02*X185387Y288300D01*
X184000Y287500D02*X182613Y288300D01*
X157480Y298000D02*Y296400D01*
Y298000D02*X158867Y298800D01*
X157480Y298000D02*X156094Y298800D01*
X109500Y324500D02*Y322900D01*
Y324500D02*X110887Y325300D01*
X109500Y324500D02*X108113Y325300D01*
X106000Y327500D02*Y325900D01*
Y327500D02*X107387Y328300D01*
X106000Y327500D02*X104613Y328300D01*
X102500Y324500D02*Y322900D01*
Y324500D02*X103887Y325300D01*
X102500Y324500D02*X101113Y325300D01*
X99000Y327500D02*Y325900D01*
Y327500D02*X100387Y328300D01*
X99000Y327500D02*X97613Y328300D01*
X95500Y324500D02*Y322900D01*
Y324500D02*X96887Y325300D01*
X95500Y324500D02*X94113Y325300D01*
X92000Y327500D02*Y325900D01*
Y327500D02*X93387Y328300D01*
X92000Y327500D02*X90613Y328300D01*
X88500Y324500D02*Y322900D01*
Y324500D02*X89887Y325300D01*
X88500Y324500D02*X87113Y325300D01*
X85000Y327500D02*Y325900D01*
Y327500D02*X86387Y328300D01*
X85000Y327500D02*X83613Y328300D01*
X109500Y306000D02*Y304400D01*
Y306000D02*X110887Y306800D01*
X109500Y306000D02*X108113Y306800D01*
X106000Y309000D02*Y307400D01*
Y309000D02*X107387Y309800D01*
X106000Y309000D02*X104613Y309800D01*
X102500Y312000D02*Y310400D01*
Y312000D02*X103887Y312800D01*
X102500Y312000D02*X101113Y312800D01*
X99000Y315000D02*Y313400D01*
Y315000D02*X100387Y315800D01*
X99000Y315000D02*X97613Y315800D01*
X95500Y312000D02*Y310400D01*
Y312000D02*X96887Y312800D01*
X95500Y312000D02*X94113Y312800D01*
X85000Y306000D02*Y304400D01*
Y306000D02*X86387Y306800D01*
X85000Y306000D02*X83613Y306800D01*
X90000Y306000D02*Y304400D01*
Y306000D02*X91387Y306800D01*
X90000Y306000D02*X88613Y306800D01*
X93500Y303000D02*Y301400D01*
Y303000D02*X94887Y303800D01*
X93500Y303000D02*X92113Y303800D01*
X227500Y239000D02*Y237400D01*
Y239000D02*X228887Y239800D01*
X227500Y239000D02*X226113Y239800D01*
X224500Y242000D02*Y240400D01*
Y242000D02*X225887Y242800D01*
X224500Y242000D02*X223113Y242800D01*
X221500Y239000D02*Y237400D01*
Y239000D02*X222887Y239800D01*
X221500Y239000D02*X220113Y239800D01*
X246500Y238500D02*Y236900D01*
Y238500D02*X247887Y239300D01*
X246500Y238500D02*X245113Y239300D01*
X246500Y242500D02*Y240900D01*
Y242500D02*X247887Y243300D01*
X246500Y242500D02*X245113Y243300D01*
X72500Y275000D02*Y273400D01*
Y275000D02*X73887Y275800D01*
X72500Y275000D02*X71113Y275800D01*
X75500Y272000D02*Y270400D01*
Y272000D02*X76887Y272800D01*
X75500Y272000D02*X74113Y272800D01*
X78500Y275000D02*Y273400D01*
Y275000D02*X79887Y275800D01*
X78500Y275000D02*X77113Y275800D01*
X53500Y275500D02*Y273900D01*
Y275500D02*X54887Y276300D01*
X53500Y275500D02*X52113Y276300D01*
X53500Y271500D02*Y269900D01*
Y271500D02*X54887Y272300D01*
X53500Y271500D02*X52113Y272300D01*
X84500Y266000D02*Y264400D01*
Y266000D02*X85887Y266800D01*
X84500Y266000D02*X83113Y266800D01*
X215500Y248000D02*Y246400D01*
Y248000D02*X216887Y248800D01*
X215500Y248000D02*X214113Y248800D01*
X227500Y194000D02*Y192400D01*
Y194000D02*X228887Y194800D01*
X227500Y194000D02*X226113Y194800D01*
X224500Y197000D02*Y195400D01*
Y197000D02*X225887Y197800D01*
X224500Y197000D02*X223113Y197800D01*
X221500Y194000D02*Y192400D01*
Y194000D02*X222887Y194800D01*
X221500Y194000D02*X220113Y194800D01*
X246500Y193500D02*Y191900D01*
Y193500D02*X247887Y194300D01*
X246500Y193500D02*X245113Y194300D01*
X246500Y197500D02*Y195900D01*
Y197500D02*X247887Y198300D01*
X246500Y197500D02*X245113Y198300D01*
X72500Y230000D02*Y228400D01*
Y230000D02*X73887Y230800D01*
X72500Y230000D02*X71113Y230800D01*
X75500Y227000D02*Y225400D01*
Y227000D02*X76887Y227800D01*
X75500Y227000D02*X74113Y227800D01*
X78500Y230000D02*Y228400D01*
Y230000D02*X79887Y230800D01*
X78500Y230000D02*X77113Y230800D01*
X53500Y230500D02*Y228900D01*
Y230500D02*X54887Y231300D01*
X53500Y230500D02*X52113Y231300D01*
X53500Y226500D02*Y224900D01*
Y226500D02*X54887Y227300D01*
X53500Y226500D02*X52113Y227300D01*
X84500Y221000D02*Y219400D01*
Y221000D02*X85887Y221800D01*
X84500Y221000D02*X83113Y221800D01*
X215500Y203000D02*Y201400D01*
Y203000D02*X216887Y203800D01*
X215500Y203000D02*X214113Y203800D01*
X227500Y149000D02*Y147400D01*
Y149000D02*X228887Y149800D01*
X227500Y149000D02*X226113Y149800D01*
X224500Y152000D02*Y150400D01*
Y152000D02*X225887Y152800D01*
X224500Y152000D02*X223113Y152800D01*
X221500Y149000D02*Y147400D01*
Y149000D02*X222887Y149800D01*
X221500Y149000D02*X220113Y149800D01*
X246500Y148500D02*Y146900D01*
Y148500D02*X247887Y149300D01*
X246500Y148500D02*X245113Y149300D01*
X246500Y152500D02*Y150900D01*
Y152500D02*X247887Y153300D01*
X246500Y152500D02*X245113Y153300D01*
X72500Y185000D02*Y183400D01*
Y185000D02*X73887Y185800D01*
X72500Y185000D02*X71113Y185800D01*
X75500Y182000D02*Y180400D01*
Y182000D02*X76887Y182800D01*
X75500Y182000D02*X74113Y182800D01*
X78500Y185000D02*Y183400D01*
Y185000D02*X79887Y185800D01*
X78500Y185000D02*X77113Y185800D01*
X53500Y185500D02*Y183900D01*
Y185500D02*X54887Y186300D01*
X53500Y185500D02*X52113Y186300D01*
X53500Y181500D02*Y179900D01*
Y181500D02*X54887Y182300D01*
X53500Y181500D02*X52113Y182300D01*
X84500Y176000D02*Y174400D01*
Y176000D02*X85887Y176800D01*
X84500Y176000D02*X83113Y176800D01*
X215500Y158000D02*Y156400D01*
Y158000D02*X216887Y158800D01*
X215500Y158000D02*X214113Y158800D01*
X136500Y167000D02*Y165400D01*
Y167000D02*X137887Y167800D01*
X136500Y167000D02*X135113Y167800D01*
X119500Y123500D02*Y121900D01*
Y123500D02*X120887Y124300D01*
X119500Y123500D02*X118113Y124300D01*
X124000Y123500D02*Y121900D01*
Y123500D02*X125387Y124300D01*
X124000Y123500D02*X122613Y124300D01*
X115000Y123500D02*Y121900D01*
Y123500D02*X116387Y124300D01*
X115000Y123500D02*X113613Y124300D01*
X180500Y123500D02*Y121900D01*
Y123500D02*X181887Y124300D01*
X180500Y123500D02*X179113Y124300D01*
X185000Y123500D02*Y121900D01*
Y123500D02*X186387Y124300D01*
X185000Y123500D02*X183613Y124300D01*
X176000Y123500D02*Y121900D01*
Y123500D02*X177387Y124300D01*
X176000Y123500D02*X174613Y124300D01*
X148500Y123500D02*Y121900D01*
Y123500D02*X149887Y124300D01*
X148500Y123500D02*X147113Y124300D01*
X153000Y123500D02*Y121900D01*
Y123500D02*X154387Y124300D01*
X153000Y123500D02*X151613Y124300D01*
X144000Y123500D02*Y121900D01*
Y123500D02*X145387Y124300D01*
X144000Y123500D02*X142613Y124300D01*
X72500Y140000D02*Y138400D01*
Y140000D02*X73887Y140800D01*
X72500Y140000D02*X71113Y140800D01*
X75500Y137000D02*Y135400D01*
Y137000D02*X76887Y137800D01*
X75500Y137000D02*X74113Y137800D01*
X78500Y140000D02*Y138400D01*
Y140000D02*X79887Y140800D01*
X78500Y140000D02*X77113Y140800D01*
X53500Y140500D02*Y138900D01*
Y140500D02*X54887Y141300D01*
X53500Y140500D02*X52113Y141300D01*
X53500Y136500D02*Y134900D01*
Y136500D02*X54887Y137300D01*
X53500Y136500D02*X52113Y137300D01*
X227500Y104000D02*Y102400D01*
Y104000D02*X228887Y104800D01*
X227500Y104000D02*X226113Y104800D01*
X224500Y107000D02*Y105400D01*
Y107000D02*X225887Y107800D01*
X224500Y107000D02*X223113Y107800D01*
X221500Y104000D02*Y102400D01*
Y104000D02*X222887Y104800D01*
X221500Y104000D02*X220113Y104800D01*
X246500Y103500D02*Y101900D01*
Y103500D02*X247887Y104300D01*
X246500Y103500D02*X245113Y104300D01*
X246500Y107500D02*Y105900D01*
Y107500D02*X247887Y108300D01*
X246500Y107500D02*X245113Y108300D01*
X84500Y131000D02*Y129400D01*
Y131000D02*X85887Y131800D01*
X84500Y131000D02*X83113Y131800D01*
X215500Y113000D02*Y111400D01*
Y113000D02*X216887Y113800D01*
X215500Y113000D02*X214113Y113800D01*
X234000Y133500D02*Y131900D01*
Y133500D02*X235387Y134300D01*
X234000Y133500D02*X232613Y134300D01*
X213000Y138500D02*Y136900D01*
Y138500D02*X214387Y139300D01*
X213000Y138500D02*X211613Y139300D01*
X213000Y128500D02*Y126900D01*
Y128500D02*X214387Y129300D01*
X213000Y128500D02*X211613Y129300D01*
X208000Y128500D02*Y126900D01*
Y128500D02*X209387Y129300D01*
X208000Y128500D02*X206613Y129300D01*
X203000Y128500D02*Y126900D01*
Y128500D02*X204387Y129300D01*
X203000Y128500D02*X201613Y129300D01*
X198000Y128500D02*Y126900D01*
Y128500D02*X199387Y129300D01*
X198000Y128500D02*X196613Y129300D01*
X208000Y138500D02*Y136900D01*
Y138500D02*X209387Y139300D01*
X208000Y138500D02*X206613Y139300D01*
X203000Y138500D02*Y136900D01*
Y138500D02*X204387Y139300D01*
X203000Y138500D02*X201613Y139300D01*
X198000Y138500D02*Y136900D01*
Y138500D02*X199387Y139300D01*
X198000Y138500D02*X196613Y139300D01*
X72500Y95000D02*Y93400D01*
Y95000D02*X73887Y95800D01*
X72500Y95000D02*X71113Y95800D01*
X75500Y92000D02*Y90400D01*
Y92000D02*X76887Y92800D01*
X75500Y92000D02*X74113Y92800D01*
X78500Y95000D02*Y93400D01*
Y95000D02*X79887Y95800D01*
X78500Y95000D02*X77113Y95800D01*
X53500Y95500D02*Y93900D01*
Y95500D02*X54887Y96300D01*
X53500Y95500D02*X52113Y96300D01*
X53500Y91500D02*Y89900D01*
Y91500D02*X54887Y92300D01*
X53500Y91500D02*X52113Y92300D01*
X227500Y59000D02*Y57400D01*
Y59000D02*X228887Y59800D01*
X227500Y59000D02*X226113Y59800D01*
X224500Y62000D02*Y60400D01*
Y62000D02*X225887Y62800D01*
X224500Y62000D02*X223113Y62800D01*
X221500Y59000D02*Y57400D01*
Y59000D02*X222887Y59800D01*
X221500Y59000D02*X220113Y59800D01*
X246500Y58500D02*Y56900D01*
Y58500D02*X247887Y59300D01*
X246500Y58500D02*X245113Y59300D01*
X246500Y62500D02*Y60900D01*
Y62500D02*X247887Y63300D01*
X246500Y62500D02*X245113Y63300D01*
X54000Y57000D02*Y55400D01*
Y57000D02*X55387Y57800D01*
X54000Y57000D02*X52613Y57800D01*
X58500Y57000D02*Y55400D01*
Y57000D02*X59887Y57800D01*
X58500Y57000D02*X57113Y57800D01*
X215500Y68000D02*Y66400D01*
Y68000D02*X216887Y68800D01*
X215500Y68000D02*X214113Y68800D01*
X84500Y86000D02*Y84400D01*
Y86000D02*X85887Y86800D01*
X84500Y86000D02*X83113Y86800D01*
X66000Y150500D02*Y148900D01*
Y150500D02*X67387Y151300D01*
X66000Y150500D02*X64613Y151300D01*
X103500Y155500D02*Y153900D01*
Y155500D02*X104887Y156300D01*
X103500Y155500D02*X102113Y156300D01*
X103500Y145500D02*Y143900D01*
Y145500D02*X104887Y146300D01*
X103500Y145500D02*X102113Y146300D01*
X98500Y145500D02*Y143900D01*
Y145500D02*X99887Y146300D01*
X98500Y145500D02*X97113Y146300D01*
X93500Y145500D02*Y143900D01*
Y145500D02*X94887Y146300D01*
X93500Y145500D02*X92113Y146300D01*
X98500Y155500D02*Y153900D01*
Y155500D02*X99887Y156300D01*
X98500Y155500D02*X97113Y156300D01*
X93500Y155500D02*Y153900D01*
Y155500D02*X94887Y156300D01*
X93500Y155500D02*X92113Y156300D01*
X88500Y145500D02*Y143900D01*
Y145500D02*X89887Y146300D01*
X88500Y145500D02*X87113Y146300D01*
X88500Y155500D02*Y153900D01*
Y155500D02*X89887Y156300D01*
X88500Y155500D02*X87113Y156300D01*
X15000Y521250D02*Y519650D01*
Y521250D02*X16387Y522050D01*
X15000Y521250D02*X13613Y522050D01*
X135000Y523500D02*X136500Y520500D01*
X138000Y523500D01*
X136500Y520500D02*Y517500D01*
X139800Y520800D02*X142050D01*
X139800Y517500D02*X142800D01*
X139800Y523500D02*Y517500D01*
Y523500D02*X142800D01*
X147600D02*X148350Y522750D01*
X145350Y523500D02*X147600D01*
X144600Y522750D02*X145350Y523500D01*
X144600Y522750D02*Y521250D01*
X145350Y520500D01*
X147600D01*
X148350Y519750D01*
Y518250D01*
X147600Y517500D02*X148350Y518250D01*
X145350Y517500D02*X147600D01*
X144600Y518250D02*X145350Y517500D01*
X98000Y522300D02*X99200Y523500D01*
Y517500D01*
X98000D02*X100250D01*
X102050Y519750D02*X105050Y523500D01*
X102050Y519750D02*X105800D01*
X105050Y523500D02*Y517500D01*
X107600Y518250D02*X108350Y517500D01*
X107600Y519450D02*Y518250D01*
Y519450D02*X108650Y520500D01*
X109550D01*
X110600Y519450D01*
Y518250D01*
X109850Y517500D02*X110600Y518250D01*
X108350Y517500D02*X109850D01*
X107600Y521550D02*X108650Y520500D01*
X107600Y522750D02*Y521550D01*
Y522750D02*X108350Y523500D01*
X109850D01*
X110600Y522750D01*
Y521550D01*
X109550Y520500D02*X110600Y521550D01*
X45000Y518250D02*X45750Y517500D01*
X45000Y522750D02*Y518250D01*
Y522750D02*X45750Y523500D01*
X47250D01*
X48000Y522750D01*
Y518250D01*
X47250Y517500D02*X48000Y518250D01*
X45750Y517500D02*X47250D01*
X45000Y519000D02*X48000Y522000D01*
X49800Y517500D02*X50550D01*
X52350Y518250D02*X53100Y517500D01*
X52350Y522750D02*Y518250D01*
Y522750D02*X53100Y523500D01*
X54600D01*
X55350Y522750D01*
Y518250D01*
X54600Y517500D02*X55350Y518250D01*
X53100Y517500D02*X54600D01*
X52350Y519000D02*X55350Y522000D01*
X57150Y522750D02*X57900Y523500D01*
X60150D01*
X60900Y522750D01*
Y521250D01*
X57150Y517500D02*X60900Y521250D01*
X57150Y517500D02*X60900D01*
X62700Y518250D02*X63450Y517500D01*
X62700Y522750D02*Y518250D01*
Y522750D02*X63450Y523500D01*
X64950D01*
X65700Y522750D01*
Y518250D01*
X64950Y517500D02*X65700Y518250D01*
X63450Y517500D02*X64950D01*
X62700Y519000D02*X65700Y522000D01*
X3000Y538500D02*X3750Y537750D01*
X750Y538500D02*X3000D01*
X0Y537750D02*X750Y538500D01*
X0Y537750D02*Y536250D01*
X750Y535500D01*
X3000D01*
X3750Y534750D01*
Y533250D01*
X3000Y532500D02*X3750Y533250D01*
X750Y532500D02*X3000D01*
X0Y533250D02*X750Y532500D01*
X5550Y535500D02*Y533250D01*
X6300Y532500D01*
X8550Y535500D02*Y531000D01*
X7800Y530250D02*X8550Y531000D01*
X6300Y530250D02*X7800D01*
X5550Y531000D02*X6300Y530250D01*
Y532500D02*X7800D01*
X8550Y533250D01*
X11100Y534750D02*Y532500D01*
Y534750D02*X11850Y535500D01*
X12600D01*
X13350Y534750D01*
Y532500D01*
Y534750D02*X14100Y535500D01*
X14850D01*
X15600Y534750D01*
Y532500D01*
X10350Y535500D02*X11100Y534750D01*
X17400Y538500D02*Y532500D01*
Y533250D02*X18150Y532500D01*
X19650D01*
X20400Y533250D01*
Y534750D02*Y533250D01*
X19650Y535500D02*X20400Y534750D01*
X18150Y535500D02*X19650D01*
X17400Y534750D02*X18150Y535500D01*
X22200Y534750D02*Y533250D01*
Y534750D02*X22950Y535500D01*
X24450D01*
X25200Y534750D01*
Y533250D01*
X24450Y532500D02*X25200Y533250D01*
X22950Y532500D02*X24450D01*
X22200Y533250D02*X22950Y532500D01*
X27000Y538500D02*Y533250D01*
X27750Y532500D01*
X0Y529250D02*X29250D01*
X41750Y538500D02*Y532500D01*
X43700Y538500D02*X44750Y537450D01*
Y533550D01*
X43700Y532500D02*X44750Y533550D01*
X41000Y532500D02*X43700D01*
X41000Y538500D02*X43700D01*
G54D73*X46550Y537000D02*Y536850D01*
G54D72*Y534750D02*Y532500D01*
X50300Y535500D02*X51050Y534750D01*
X48800Y535500D02*X50300D01*
X48050Y534750D02*X48800Y535500D01*
X48050Y534750D02*Y533250D01*
X48800Y532500D01*
X51050Y535500D02*Y533250D01*
X51800Y532500D01*
X48800D02*X50300D01*
X51050Y533250D01*
X54350Y534750D02*Y532500D01*
Y534750D02*X55100Y535500D01*
X55850D01*
X56600Y534750D01*
Y532500D01*
Y534750D02*X57350Y535500D01*
X58100D01*
X58850Y534750D01*
Y532500D01*
X53600Y535500D02*X54350Y534750D01*
X60650Y532500D02*X61400D01*
X65900Y533250D02*X66650Y532500D01*
X65900Y537750D02*X66650Y538500D01*
X65900Y537750D02*Y533250D01*
X68450Y538500D02*X69950D01*
X69200D02*Y532500D01*
X68450D02*X69950D01*
X72500Y534750D02*Y532500D01*
Y534750D02*X73250Y535500D01*
X74000D01*
X74750Y534750D01*
Y532500D01*
X71750Y535500D02*X72500Y534750D01*
X77300Y535500D02*X79550D01*
X76550Y534750D02*X77300Y535500D01*
X76550Y534750D02*Y533250D01*
X77300Y532500D01*
X79550D01*
X81350Y538500D02*Y532500D01*
Y534750D02*X82100Y535500D01*
X83600D01*
X84350Y534750D01*
Y532500D01*
X86150Y538500D02*X86900Y537750D01*
Y533250D01*
X86150Y532500D02*X86900Y533250D01*
X41000Y529250D02*X88700D01*
X96050Y532500D02*X98000D01*
X95000Y533550D02*X96050Y532500D01*
X95000Y537450D02*Y533550D01*
Y537450D02*X96050Y538500D01*
X98000D01*
X99800Y534750D02*Y533250D01*
Y534750D02*X100550Y535500D01*
X102050D01*
X102800Y534750D01*
Y533250D01*
X102050Y532500D02*X102800Y533250D01*
X100550Y532500D02*X102050D01*
X99800Y533250D02*X100550Y532500D01*
X104600Y535500D02*Y533250D01*
X105350Y532500D01*
X106850D01*
X107600Y533250D01*
Y535500D02*Y533250D01*
X110150Y534750D02*Y532500D01*
Y534750D02*X110900Y535500D01*
X111650D01*
X112400Y534750D01*
Y532500D01*
X109400Y535500D02*X110150Y534750D01*
X114950Y538500D02*Y533250D01*
X115700Y532500D01*
X114200Y536250D02*X115700D01*
X95000Y529250D02*X117200D01*
X130750Y538500D02*Y532500D01*
X130000Y538500D02*X133000D01*
X133750Y537750D01*
Y536250D01*
X133000Y535500D02*X133750Y536250D01*
X130750Y535500D02*X133000D01*
X135550Y538500D02*Y533250D01*
X136300Y532500D01*
X140050Y535500D02*X140800Y534750D01*
X138550Y535500D02*X140050D01*
X137800Y534750D02*X138550Y535500D01*
X137800Y534750D02*Y533250D01*
X138550Y532500D01*
X140800Y535500D02*Y533250D01*
X141550Y532500D01*
X138550D02*X140050D01*
X140800Y533250D01*
X144100Y538500D02*Y533250D01*
X144850Y532500D01*
X143350Y536250D02*X144850D01*
X147100Y532500D02*X149350D01*
X146350Y533250D02*X147100Y532500D01*
X146350Y534750D02*Y533250D01*
Y534750D02*X147100Y535500D01*
X148600D01*
X149350Y534750D01*
X146350Y534000D02*X149350D01*
Y534750D02*Y534000D01*
X154150Y538500D02*Y532500D01*
X153400D02*X154150Y533250D01*
X151900Y532500D02*X153400D01*
X151150Y533250D02*X151900Y532500D01*
X151150Y534750D02*Y533250D01*
Y534750D02*X151900Y535500D01*
X153400D01*
X154150Y534750D01*
X157450Y535500D02*Y534750D01*
Y533250D02*Y532500D01*
X155950Y537750D02*Y537000D01*
Y537750D02*X156700Y538500D01*
X158200D01*
X158950Y537750D01*
Y537000D01*
X157450Y535500D02*X158950Y537000D01*
X130000Y529250D02*X160750D01*
X0Y553500D02*X3000D01*
X1500D02*Y547500D01*
X4800Y553500D02*Y547500D01*
Y549750D02*X5550Y550500D01*
X7050D01*
X7800Y549750D01*
Y547500D01*
X10350D02*X12600D01*
X9600Y548250D02*X10350Y547500D01*
X9600Y549750D02*Y548250D01*
Y549750D02*X10350Y550500D01*
X11850D01*
X12600Y549750D01*
X9600Y549000D02*X12600D01*
Y549750D02*Y549000D01*
X15150Y549750D02*Y547500D01*
Y549750D02*X15900Y550500D01*
X17400D01*
X14400D02*X15150Y549750D01*
X19950Y547500D02*X22200D01*
X19200Y548250D02*X19950Y547500D01*
X19200Y549750D02*Y548250D01*
Y549750D02*X19950Y550500D01*
X21450D01*
X22200Y549750D01*
X19200Y549000D02*X22200D01*
Y549750D02*Y549000D01*
X28950Y550500D02*X29700Y549750D01*
X27450Y550500D02*X28950D01*
X26700Y549750D02*X27450Y550500D01*
X26700Y549750D02*Y548250D01*
X27450Y547500D01*
X29700Y550500D02*Y548250D01*
X30450Y547500D01*
X27450D02*X28950D01*
X29700Y548250D01*
X33000Y549750D02*Y547500D01*
Y549750D02*X33750Y550500D01*
X35250D01*
X32250D02*X33000Y549750D01*
X37800Y547500D02*X40050D01*
X37050Y548250D02*X37800Y547500D01*
X37050Y549750D02*Y548250D01*
Y549750D02*X37800Y550500D01*
X39300D01*
X40050Y549750D01*
X37050Y549000D02*X40050D01*
Y549750D02*Y549000D01*
X45300Y547500D02*X48300Y553500D01*
X44550D02*X48300D01*
X55800D02*Y547500D01*
X55050D02*X55800Y548250D01*
X53550Y547500D02*X55050D01*
X52800Y548250D02*X53550Y547500D01*
X52800Y549750D02*Y548250D01*
Y549750D02*X53550Y550500D01*
X55050D01*
X55800Y549750D01*
G54D73*X57600Y552000D02*Y551850D01*
G54D72*Y549750D02*Y547500D01*
X59850Y552750D02*Y547500D01*
Y552750D02*X60600Y553500D01*
X61350D01*
X59100Y550500D02*X60600D01*
X63600Y552750D02*Y547500D01*
Y552750D02*X64350Y553500D01*
X65100D01*
X62850Y550500D02*X64350D01*
X67350Y547500D02*X69600D01*
X66600Y548250D02*X67350Y547500D01*
X66600Y549750D02*Y548250D01*
Y549750D02*X67350Y550500D01*
X68850D01*
X69600Y549750D01*
X66600Y549000D02*X69600D01*
Y549750D02*Y549000D01*
X72150Y549750D02*Y547500D01*
Y549750D02*X72900Y550500D01*
X74400D01*
X71400D02*X72150Y549750D01*
X76950Y547500D02*X79200D01*
X76200Y548250D02*X76950Y547500D01*
X76200Y549750D02*Y548250D01*
Y549750D02*X76950Y550500D01*
X78450D01*
X79200Y549750D01*
X76200Y549000D02*X79200D01*
Y549750D02*Y549000D01*
X81750Y549750D02*Y547500D01*
Y549750D02*X82500Y550500D01*
X83250D01*
X84000Y549750D01*
Y547500D01*
X81000Y550500D02*X81750Y549750D01*
X86550Y553500D02*Y548250D01*
X87300Y547500D01*
X85800Y551250D02*X87300D01*
X94500Y553500D02*Y547500D01*
X93750D02*X94500Y548250D01*
X92250Y547500D02*X93750D01*
X91500Y548250D02*X92250Y547500D01*
X91500Y549750D02*Y548250D01*
Y549750D02*X92250Y550500D01*
X93750D01*
X94500Y549750D01*
X97050D02*Y547500D01*
Y549750D02*X97800Y550500D01*
X99300D01*
X96300D02*X97050Y549750D01*
G54D73*X101100Y552000D02*Y551850D01*
G54D72*Y549750D02*Y547500D01*
X102600Y553500D02*Y548250D01*
X103350Y547500D01*
X104850Y553500D02*Y548250D01*
X105600Y547500D01*
X110550D02*X112800D01*
X113550Y548250D01*
X112800Y549000D02*X113550Y548250D01*
X110550Y549000D02*X112800D01*
X109800Y549750D02*X110550Y549000D01*
X109800Y549750D02*X110550Y550500D01*
X112800D01*
X113550Y549750D01*
X109800Y548250D02*X110550Y547500D01*
G54D73*X115350Y552000D02*Y551850D01*
G54D72*Y549750D02*Y547500D01*
X116850Y550500D02*X119850D01*
X116850Y547500D02*X119850Y550500D01*
X116850Y547500D02*X119850D01*
X122400D02*X124650D01*
X121650Y548250D02*X122400Y547500D01*
X121650Y549750D02*Y548250D01*
Y549750D02*X122400Y550500D01*
X123900D01*
X124650Y549750D01*
X121650Y549000D02*X124650D01*
Y549750D02*Y549000D01*
X127200Y547500D02*X129450D01*
X130200Y548250D01*
X129450Y549000D02*X130200Y548250D01*
X127200Y549000D02*X129450D01*
X126450Y549750D02*X127200Y549000D01*
X126450Y549750D02*X127200Y550500D01*
X129450D01*
X130200Y549750D01*
X126450Y548250D02*X127200Y547500D01*
X134700Y550500D02*Y548250D01*
X135450Y547500D01*
X136950D01*
X137700Y548250D01*
Y550500D02*Y548250D01*
X140250Y547500D02*X142500D01*
X143250Y548250D01*
X142500Y549000D02*X143250Y548250D01*
X140250Y549000D02*X142500D01*
X139500Y549750D02*X140250Y549000D01*
X139500Y549750D02*X140250Y550500D01*
X142500D01*
X143250Y549750D01*
X139500Y548250D02*X140250Y547500D01*
X145800D02*X148050D01*
X145050Y548250D02*X145800Y547500D01*
X145050Y549750D02*Y548250D01*
Y549750D02*X145800Y550500D01*
X147300D01*
X148050Y549750D01*
X145050Y549000D02*X148050D01*
Y549750D02*Y549000D01*
X152850Y553500D02*Y547500D01*
X152100D02*X152850Y548250D01*
X150600Y547500D02*X152100D01*
X149850Y548250D02*X150600Y547500D01*
X149850Y549750D02*Y548250D01*
Y549750D02*X150600Y550500D01*
X152100D01*
X152850Y549750D01*
G54D73*X157350Y552000D02*Y551850D01*
G54D72*Y549750D02*Y547500D01*
X159600Y549750D02*Y547500D01*
Y549750D02*X160350Y550500D01*
X161100D01*
X161850Y549750D01*
Y547500D01*
X158850Y550500D02*X159600Y549750D01*
X167100Y553500D02*Y548250D01*
X167850Y547500D01*
X166350Y551250D02*X167850D01*
X169350Y553500D02*Y547500D01*
Y549750D02*X170100Y550500D01*
X171600D01*
X172350Y549750D01*
Y547500D01*
G54D73*X174150Y552000D02*Y551850D01*
G54D72*Y549750D02*Y547500D01*
X176400D02*X178650D01*
X179400Y548250D01*
X178650Y549000D02*X179400Y548250D01*
X176400Y549000D02*X178650D01*
X175650Y549750D02*X176400Y549000D01*
X175650Y549750D02*X176400Y550500D01*
X178650D01*
X179400Y549750D01*
X175650Y548250D02*X176400Y547500D01*
X183900Y553500D02*Y548250D01*
X184650Y547500D01*
X188400Y550500D02*X189150Y549750D01*
X186900Y550500D02*X188400D01*
X186150Y549750D02*X186900Y550500D01*
X186150Y549750D02*Y548250D01*
X186900Y547500D01*
X189150Y550500D02*Y548250D01*
X189900Y547500D01*
X186900D02*X188400D01*
X189150Y548250D01*
X191700Y550500D02*Y548250D01*
X192450Y547500D01*
X194700Y550500D02*Y546000D01*
X193950Y545250D02*X194700Y546000D01*
X192450Y545250D02*X193950D01*
X191700Y546000D02*X192450Y545250D01*
Y547500D02*X193950D01*
X194700Y548250D01*
X196500Y549750D02*Y548250D01*
Y549750D02*X197250Y550500D01*
X198750D01*
X199500Y549750D01*
Y548250D01*
X198750Y547500D02*X199500Y548250D01*
X197250Y547500D02*X198750D01*
X196500Y548250D02*X197250Y547500D01*
X201300Y550500D02*Y548250D01*
X202050Y547500D01*
X203550D01*
X204300Y548250D01*
Y550500D02*Y548250D01*
X206850Y553500D02*Y548250D01*
X207600Y547500D01*
X206100Y551250D02*X207600D01*
X209100Y546000D02*X210600Y547500D01*
X215100Y552300D02*X216300Y553500D01*
Y547500D01*
X215100D02*X217350D01*
X219900D02*X222150Y550500D01*
Y552750D02*Y550500D01*
X221400Y553500D02*X222150Y552750D01*
X219900Y553500D02*X221400D01*
X219150Y552750D02*X219900Y553500D01*
X219150Y552750D02*Y551250D01*
X219900Y550500D01*
X222150D01*
X223950Y552300D02*X225150Y553500D01*
Y547500D01*
X223950D02*X226200D01*
X230700Y553500D02*Y547500D01*
Y549750D02*X231450Y550500D01*
X232950D01*
X233700Y549750D01*
Y547500D01*
X235500Y549750D02*Y548250D01*
Y549750D02*X236250Y550500D01*
X237750D01*
X238500Y549750D01*
Y548250D01*
X237750Y547500D02*X238500Y548250D01*
X236250Y547500D02*X237750D01*
X235500Y548250D02*X236250Y547500D01*
X240300Y553500D02*Y548250D01*
X241050Y547500D01*
X243300D02*X245550D01*
X242550Y548250D02*X243300Y547500D01*
X242550Y549750D02*Y548250D01*
Y549750D02*X243300Y550500D01*
X244800D01*
X245550Y549750D01*
X242550Y549000D02*X245550D01*
Y549750D02*Y549000D01*
X248100Y547500D02*X250350D01*
X251100Y548250D01*
X250350Y549000D02*X251100Y548250D01*
X248100Y549000D02*X250350D01*
X247350Y549750D02*X248100Y549000D01*
X247350Y549750D02*X248100Y550500D01*
X250350D01*
X251100Y549750D01*
X247350Y548250D02*X248100Y547500D01*
X256350Y553500D02*Y548250D01*
X257100Y547500D01*
X255600Y551250D02*X257100D01*
X258600Y549750D02*Y548250D01*
Y549750D02*X259350Y550500D01*
X260850D01*
X261600Y549750D01*
Y548250D01*
X260850Y547500D02*X261600Y548250D01*
X259350Y547500D02*X260850D01*
X258600Y548250D02*X259350Y547500D01*
X264150Y553500D02*Y548250D01*
X264900Y547500D01*
X263400Y551250D02*X264900D01*
X268650Y550500D02*X269400Y549750D01*
X267150Y550500D02*X268650D01*
X266400Y549750D02*X267150Y550500D01*
X266400Y549750D02*Y548250D01*
X267150Y547500D01*
X269400Y550500D02*Y548250D01*
X270150Y547500D01*
X267150D02*X268650D01*
X269400Y548250D01*
X271950Y553500D02*Y548250D01*
X272700Y547500D01*
G54D74*X10000Y410000D02*Y10000D01*
X290000Y410000D02*Y10000D01*
X10000Y410000D02*X290000D01*
X10000Y10000D02*X290000D01*
G54D72*X63675Y-9500D02*X66675D01*
X67425Y-8750D01*
Y-6950D02*Y-8750D01*
X66675Y-6200D02*X67425Y-6950D01*
X64425Y-6200D02*X66675D01*
X64425Y-3500D02*Y-9500D01*
X63675Y-3500D02*X66675D01*
X67425Y-4250D01*
Y-5450D01*
X66675Y-6200D02*X67425Y-5450D01*
X69225Y-7250D02*Y-8750D01*
Y-7250D02*X69975Y-6500D01*
X71475D01*
X72225Y-7250D01*
Y-8750D01*
X71475Y-9500D02*X72225Y-8750D01*
X69975Y-9500D02*X71475D01*
X69225Y-8750D02*X69975Y-9500D01*
X76275Y-6500D02*X77025Y-7250D01*
X74775Y-6500D02*X76275D01*
X74025Y-7250D02*X74775Y-6500D01*
X74025Y-7250D02*Y-8750D01*
X74775Y-9500D01*
X77025Y-6500D02*Y-8750D01*
X77775Y-9500D01*
X74775D02*X76275D01*
X77025Y-8750D01*
X80325Y-7250D02*Y-9500D01*
Y-7250D02*X81075Y-6500D01*
X82575D01*
X79575D02*X80325Y-7250D01*
X87375Y-3500D02*Y-9500D01*
X86625D02*X87375Y-8750D01*
X85125Y-9500D02*X86625D01*
X84375Y-8750D02*X85125Y-9500D01*
X84375Y-7250D02*Y-8750D01*
Y-7250D02*X85125Y-6500D01*
X86625D01*
X87375Y-7250D01*
X91875D02*Y-8750D01*
Y-7250D02*X92625Y-6500D01*
X94125D01*
X94875Y-7250D01*
Y-8750D01*
X94125Y-9500D02*X94875Y-8750D01*
X92625Y-9500D02*X94125D01*
X91875Y-8750D02*X92625Y-9500D01*
X96675Y-6500D02*Y-8750D01*
X97425Y-9500D01*
X98925D01*
X99675Y-8750D01*
Y-6500D02*Y-8750D01*
X102225Y-3500D02*Y-8750D01*
X102975Y-9500D01*
X101475Y-5750D02*X102975D01*
X104475Y-3500D02*Y-8750D01*
X105225Y-9500D01*
G54D73*X106725Y-5000D02*Y-5150D01*
G54D72*Y-7250D02*Y-9500D01*
X108975Y-7250D02*Y-9500D01*
Y-7250D02*X109725Y-6500D01*
X110475D01*
X111225Y-7250D01*
Y-9500D01*
X108225Y-6500D02*X108975Y-7250D01*
X113775Y-9500D02*X116025D01*
X113025Y-8750D02*X113775Y-9500D01*
X113025Y-7250D02*Y-8750D01*
Y-7250D02*X113775Y-6500D01*
X115275D01*
X116025Y-7250D01*
X113025Y-8000D02*X116025D01*
Y-7250D02*Y-8000D01*
G54D73*X120525Y-5000D02*Y-5150D01*
G54D72*Y-7250D02*Y-9500D01*
X122775D02*X125025D01*
X125775Y-8750D01*
X125025Y-8000D02*X125775Y-8750D01*
X122775Y-8000D02*X125025D01*
X122025Y-7250D02*X122775Y-8000D01*
X122025Y-7250D02*X122775Y-6500D01*
X125025D01*
X125775Y-7250D01*
X122025Y-8750D02*X122775Y-9500D01*
X131025Y-3500D02*Y-8750D01*
X131775Y-9500D01*
X130275Y-5750D02*X131775D01*
X133275Y-3500D02*Y-9500D01*
Y-7250D02*X134025Y-6500D01*
X135525D01*
X136275Y-7250D01*
Y-9500D01*
X138825D02*X141075D01*
X138075Y-8750D02*X138825Y-9500D01*
X138075Y-7250D02*Y-8750D01*
Y-7250D02*X138825Y-6500D01*
X140325D01*
X141075Y-7250D01*
X138075Y-8000D02*X141075D01*
Y-7250D02*Y-8000D01*
X146325Y-6500D02*X148575D01*
X145575Y-7250D02*X146325Y-6500D01*
X145575Y-7250D02*Y-8750D01*
X146325Y-9500D01*
X148575D01*
X151125D02*X153375D01*
X150375Y-8750D02*X151125Y-9500D01*
X150375Y-7250D02*Y-8750D01*
Y-7250D02*X151125Y-6500D01*
X152625D01*
X153375Y-7250D01*
X150375Y-8000D02*X153375D01*
Y-7250D02*Y-8000D01*
X155925Y-7250D02*Y-9500D01*
Y-7250D02*X156675Y-6500D01*
X157425D01*
X158175Y-7250D01*
Y-9500D01*
X155175Y-6500D02*X155925Y-7250D01*
X160725Y-3500D02*Y-8750D01*
X161475Y-9500D01*
X159975Y-5750D02*X161475D01*
X163725Y-9500D02*X165975D01*
X162975Y-8750D02*X163725Y-9500D01*
X162975Y-7250D02*Y-8750D01*
Y-7250D02*X163725Y-6500D01*
X165225D01*
X165975Y-7250D01*
X162975Y-8000D02*X165975D01*
Y-7250D02*Y-8000D01*
X168525Y-7250D02*Y-9500D01*
Y-7250D02*X169275Y-6500D01*
X170775D01*
X167775D02*X168525Y-7250D01*
X172575Y-3500D02*Y-8750D01*
X173325Y-9500D01*
G54D73*X174825Y-5000D02*Y-5150D01*
G54D72*Y-7250D02*Y-9500D01*
X177075Y-7250D02*Y-9500D01*
Y-7250D02*X177825Y-6500D01*
X178575D01*
X179325Y-7250D01*
Y-9500D01*
X176325Y-6500D02*X177075Y-7250D01*
X181875Y-9500D02*X184125D01*
X181125Y-8750D02*X181875Y-9500D01*
X181125Y-7250D02*Y-8750D01*
Y-7250D02*X181875Y-6500D01*
X183375D01*
X184125Y-7250D01*
X181125Y-8000D02*X184125D01*
Y-7250D02*Y-8000D01*
X188625Y-7250D02*Y-8750D01*
Y-7250D02*X189375Y-6500D01*
X190875D01*
X191625Y-7250D01*
Y-8750D01*
X190875Y-9500D02*X191625Y-8750D01*
X189375Y-9500D02*X190875D01*
X188625Y-8750D02*X189375Y-9500D01*
X194175Y-4250D02*Y-9500D01*
Y-4250D02*X194925Y-3500D01*
X195675D01*
X193425Y-6500D02*X194925D01*
X200625Y-3500D02*Y-8750D01*
X201375Y-9500D01*
X199875Y-5750D02*X201375D01*
X202875Y-3500D02*Y-9500D01*
Y-7250D02*X203625Y-6500D01*
X205125D01*
X205875Y-7250D01*
Y-9500D01*
G54D73*X207675Y-5000D02*Y-5150D01*
G54D72*Y-7250D02*Y-9500D01*
X209925D02*X212175D01*
X212925Y-8750D01*
X212175Y-8000D02*X212925Y-8750D01*
X209925Y-8000D02*X212175D01*
X209175Y-7250D02*X209925Y-8000D01*
X209175Y-7250D02*X209925Y-6500D01*
X212175D01*
X212925Y-7250D01*
X209175Y-8750D02*X209925Y-9500D01*
X218175Y-7250D02*Y-11750D01*
X217425Y-6500D02*X218175Y-7250D01*
X218925Y-6500D01*
X220425D01*
X221175Y-7250D01*
Y-8750D01*
X220425Y-9500D02*X221175Y-8750D01*
X218925Y-9500D02*X220425D01*
X218175Y-8750D02*X218925Y-9500D01*
X225225Y-6500D02*X225975Y-7250D01*
X223725Y-6500D02*X225225D01*
X222975Y-7250D02*X223725Y-6500D01*
X222975Y-7250D02*Y-8750D01*
X223725Y-9500D01*
X225975Y-6500D02*Y-8750D01*
X226725Y-9500D01*
X223725D02*X225225D01*
X225975Y-8750D01*
X229275Y-3500D02*Y-8750D01*
X230025Y-9500D01*
X228525Y-5750D02*X230025D01*
X231525Y-3500D02*Y-9500D01*
Y-7250D02*X232275Y-6500D01*
X233775D01*
X234525Y-7250D01*
Y-9500D01*
X200750Y448500D02*Y442500D01*
X202700Y448500D02*X203750Y447450D01*
Y443550D01*
X202700Y442500D02*X203750Y443550D01*
X200000Y442500D02*X202700D01*
X200000Y448500D02*X202700D01*
X207800Y445500D02*X208550Y444750D01*
X206300Y445500D02*X207800D01*
X205550Y444750D02*X206300Y445500D01*
X205550Y444750D02*Y443250D01*
X206300Y442500D01*
X208550Y445500D02*Y443250D01*
X209300Y442500D01*
X206300D02*X207800D01*
X208550Y443250D01*
X211850Y448500D02*Y443250D01*
X212600Y442500D01*
X211100Y446250D02*X212600D01*
X214850Y442500D02*X217100D01*
X214100Y443250D02*X214850Y442500D01*
X214100Y444750D02*Y443250D01*
Y444750D02*X214850Y445500D01*
X216350D01*
X217100Y444750D01*
X214100Y444000D02*X217100D01*
Y444750D02*Y444000D01*
X218900Y446250D02*X219650D01*
X218900Y444750D02*X219650D01*
X227150Y448500D02*X227900Y447750D01*
X224900Y448500D02*X227150D01*
X224150Y447750D02*X224900Y448500D01*
X224150Y447750D02*Y446250D01*
X224900Y445500D01*
X227150D01*
X227900Y444750D01*
Y443250D01*
X227150Y442500D02*X227900Y443250D01*
X224900Y442500D02*X227150D01*
X224150Y443250D02*X224900Y442500D01*
X231950Y445500D02*X232700Y444750D01*
X230450Y445500D02*X231950D01*
X229700Y444750D02*X230450Y445500D01*
X229700Y444750D02*Y443250D01*
X230450Y442500D01*
X232700Y445500D02*Y443250D01*
X233450Y442500D01*
X230450D02*X231950D01*
X232700Y443250D01*
X236000Y448500D02*Y443250D01*
X236750Y442500D01*
X235250Y446250D02*X236750D01*
X240950Y448500D02*Y442500D01*
Y448500D02*X243200Y445500D01*
X245450Y448500D01*
Y442500D01*
X249500Y445500D02*X250250Y444750D01*
X248000Y445500D02*X249500D01*
X247250Y444750D02*X248000Y445500D01*
X247250Y444750D02*Y443250D01*
X248000Y442500D01*
X250250Y445500D02*Y443250D01*
X251000Y442500D01*
X248000D02*X249500D01*
X250250Y443250D01*
X252800Y445500D02*Y443250D01*
X253550Y442500D01*
X255800Y445500D02*Y441000D01*
X255050Y440250D02*X255800Y441000D01*
X253550Y440250D02*X255050D01*
X252800Y441000D02*X253550Y440250D01*
Y442500D02*X255050D01*
X255800Y443250D01*
X260300Y447300D02*X261500Y448500D01*
Y442500D01*
X260300D02*X262550D01*
X264350Y444750D02*X267350Y448500D01*
X264350Y444750D02*X268100D01*
X267350Y448500D02*Y442500D01*
X272600Y447300D02*X273800Y448500D01*
Y442500D01*
X272600D02*X274850D01*
X276650Y443250D02*X277400Y442500D01*
X276650Y444450D02*Y443250D01*
Y444450D02*X277700Y445500D01*
X278600D01*
X279650Y444450D01*
Y443250D01*
X278900Y442500D02*X279650Y443250D01*
X277400Y442500D02*X278900D01*
X276650Y446550D02*X277700Y445500D01*
X276650Y447750D02*Y446550D01*
Y447750D02*X277400Y448500D01*
X278900D01*
X279650Y447750D01*
Y446550D01*
X278600Y445500D02*X279650Y446550D01*
X281450Y446250D02*X282200D01*
X281450Y444750D02*X282200D01*
X284000Y447750D02*X284750Y448500D01*
X286250D01*
X287000Y447750D01*
X286250Y442500D02*X287000Y443250D01*
X284750Y442500D02*X286250D01*
X284000Y443250D02*X284750Y442500D01*
Y445800D02*X286250D01*
X287000Y447750D02*Y446550D01*
Y445050D02*Y443250D01*
Y445050D02*X286250Y445800D01*
X287000Y446550D02*X286250Y445800D01*
X288800Y443250D02*X289550Y442500D01*
X288800Y447750D02*Y443250D01*
Y447750D02*X289550Y448500D01*
X291050D01*
X291800Y447750D01*
Y443250D01*
X291050Y442500D02*X291800Y443250D01*
X289550Y442500D02*X291050D01*
X288800Y444000D02*X291800Y447000D01*
X293600Y446250D02*X294350D01*
X293600Y444750D02*X294350D01*
X296150Y448500D02*X299150D01*
X296150D02*Y445500D01*
X296900Y446250D01*
X298400D01*
X299150Y445500D01*
Y443250D01*
X298400Y442500D02*X299150Y443250D01*
X296900Y442500D02*X298400D01*
X296150Y443250D02*X296900Y442500D01*
X301700D02*X303950Y445500D01*
Y447750D02*Y445500D01*
X303200Y448500D02*X303950Y447750D01*
X301700Y448500D02*X303200D01*
X300950Y447750D02*X301700Y448500D01*
X300950Y447750D02*Y446250D01*
X301700Y445500D01*
X303950D01*
X308450Y447750D02*X309200Y448500D01*
X311450D01*
X312200Y447750D01*
Y446250D01*
X308450Y442500D02*X312200Y446250D01*
X308450Y442500D02*X312200D01*
X314000Y443250D02*X314750Y442500D01*
X314000Y447750D02*Y443250D01*
Y447750D02*X314750Y448500D01*
X316250D01*
X317000Y447750D01*
Y443250D01*
X316250Y442500D02*X317000Y443250D01*
X314750Y442500D02*X316250D01*
X314000Y444000D02*X317000Y447000D01*
X318800Y447750D02*X319550Y448500D01*
X321800D01*
X322550Y447750D01*
Y446250D01*
X318800Y442500D02*X322550Y446250D01*
X318800Y442500D02*X322550D01*
X324350Y447750D02*X325100Y448500D01*
X327350D01*
X328100Y447750D01*
Y446250D01*
X324350Y442500D02*X328100Y446250D01*
X324350Y442500D02*X328100D01*
X332600Y448500D02*Y443250D01*
X333350Y442500D01*
X334850D01*
X335600Y443250D01*
Y448500D02*Y443250D01*
X337400Y448500D02*X340400D01*
X338900D02*Y442500D01*
X343250D02*X345200D01*
X342200Y443550D02*X343250Y442500D01*
X342200Y447450D02*Y443550D01*
Y447450D02*X343250Y448500D01*
X345200D01*
X200000Y462000D02*Y457500D01*
Y462000D02*X201050Y463500D01*
X202700D01*
X203750Y462000D01*
Y457500D01*
X200000Y460500D02*X203750D01*
X205550D02*Y458250D01*
X206300Y457500D01*
X207800D01*
X208550Y458250D01*
Y460500D02*Y458250D01*
X211100Y463500D02*Y458250D01*
X211850Y457500D01*
X210350Y461250D02*X211850D01*
X213350Y463500D02*Y457500D01*
Y459750D02*X214100Y460500D01*
X215600D01*
X216350Y459750D01*
Y457500D01*
X218150Y459750D02*Y458250D01*
Y459750D02*X218900Y460500D01*
X220400D01*
X221150Y459750D01*
Y458250D01*
X220400Y457500D02*X221150Y458250D01*
X218900Y457500D02*X220400D01*
X218150Y458250D02*X218900Y457500D01*
X223700Y459750D02*Y457500D01*
Y459750D02*X224450Y460500D01*
X225950D01*
X222950D02*X223700Y459750D01*
X227750Y461250D02*X228500D01*
X227750Y459750D02*X228500D01*
X233000Y463500D02*Y457500D01*
Y463500D02*X235250Y460500D01*
X237500Y463500D01*
Y457500D01*
G54D73*X239300Y462000D02*Y461850D01*
G54D72*Y459750D02*Y457500D01*
X241550Y460500D02*X243800D01*
X240800Y459750D02*X241550Y460500D01*
X240800Y459750D02*Y458250D01*
X241550Y457500D01*
X243800D01*
X245600Y463500D02*Y457500D01*
Y459750D02*X246350Y460500D01*
X247850D01*
X248600Y459750D01*
Y457500D01*
X252650Y460500D02*X253400Y459750D01*
X251150Y460500D02*X252650D01*
X250400Y459750D02*X251150Y460500D01*
X250400Y459750D02*Y458250D01*
X251150Y457500D01*
X253400Y460500D02*Y458250D01*
X254150Y457500D01*
X251150D02*X252650D01*
X253400Y458250D01*
X256700Y457500D02*X258950D01*
X255950Y458250D02*X256700Y457500D01*
X255950Y459750D02*Y458250D01*
Y459750D02*X256700Y460500D01*
X258200D01*
X258950Y459750D01*
X255950Y459000D02*X258950D01*
Y459750D02*Y459000D01*
X260750Y463500D02*Y458250D01*
X261500Y457500D01*
X266450Y463500D02*Y457500D01*
X265700Y463500D02*X268700D01*
X269450Y462750D01*
Y461250D01*
X268700Y460500D02*X269450Y461250D01*
X266450Y460500D02*X268700D01*
X272000Y457500D02*X274250D01*
X271250Y458250D02*X272000Y457500D01*
X271250Y459750D02*Y458250D01*
Y459750D02*X272000Y460500D01*
X273500D01*
X274250Y459750D01*
X271250Y459000D02*X274250D01*
Y459750D02*Y459000D01*
X276800Y463500D02*Y458250D01*
X277550Y457500D01*
X276050Y461250D02*X277550D01*
X279800Y457500D02*X282050D01*
X279050Y458250D02*X279800Y457500D01*
X279050Y459750D02*Y458250D01*
Y459750D02*X279800Y460500D01*
X281300D01*
X282050Y459750D01*
X279050Y459000D02*X282050D01*
Y459750D02*Y459000D01*
X284600Y459750D02*Y457500D01*
Y459750D02*X285350Y460500D01*
X286850D01*
X283850D02*X284600Y459750D01*
X289400Y457500D02*X291650D01*
X292400Y458250D01*
X291650Y459000D02*X292400Y458250D01*
X289400Y459000D02*X291650D01*
X288650Y459750D02*X289400Y459000D01*
X288650Y459750D02*X289400Y460500D01*
X291650D01*
X292400Y459750D01*
X288650Y458250D02*X289400Y457500D01*
X294950D02*X297200D01*
X294200Y458250D02*X294950Y457500D01*
X294200Y459750D02*Y458250D01*
Y459750D02*X294950Y460500D01*
X296450D01*
X297200Y459750D01*
X294200Y459000D02*X297200D01*
Y459750D02*Y459000D01*
X299750Y459750D02*Y457500D01*
Y459750D02*X300500Y460500D01*
X301250D01*
X302000Y459750D01*
Y457500D01*
X299000Y460500D02*X299750Y459750D01*
X200000Y478500D02*X203000D01*
X201500D02*Y472500D01*
G54D73*X204800Y477000D02*Y476850D01*
G54D72*Y474750D02*Y472500D01*
X207050Y478500D02*Y473250D01*
X207800Y472500D01*
X206300Y476250D02*X207800D01*
X209300Y478500D02*Y473250D01*
X210050Y472500D01*
X212300D02*X214550D01*
X211550Y473250D02*X212300Y472500D01*
X211550Y474750D02*Y473250D01*
Y474750D02*X212300Y475500D01*
X213800D01*
X214550Y474750D01*
X211550Y474000D02*X214550D01*
Y474750D02*Y474000D01*
X216350Y476250D02*X217100D01*
X216350Y474750D02*X217100D01*
X221600Y473250D02*X222350Y472500D01*
X221600Y477750D02*X222350Y478500D01*
X221600Y477750D02*Y473250D01*
X224150Y475500D02*Y473250D01*
X224900Y472500D01*
X226400D01*
X227150Y473250D01*
Y475500D02*Y473250D01*
X229700Y474750D02*Y472500D01*
Y474750D02*X230450Y475500D01*
X231200D01*
X231950Y474750D01*
Y472500D01*
X228950Y475500D02*X229700Y474750D01*
X233750Y478500D02*Y472500D01*
Y474750D02*X236000Y472500D01*
X233750Y474750D02*X235250Y476250D01*
X238550Y474750D02*Y472500D01*
Y474750D02*X239300Y475500D01*
X240050D01*
X240800Y474750D01*
Y472500D01*
X237800Y475500D02*X238550Y474750D01*
X242600D02*Y473250D01*
Y474750D02*X243350Y475500D01*
X244850D01*
X245600Y474750D01*
Y473250D01*
X244850Y472500D02*X245600Y473250D01*
X243350Y472500D02*X244850D01*
X242600Y473250D02*X243350Y472500D01*
X247400Y475500D02*Y473250D01*
X248150Y472500D01*
X248900D01*
X249650Y473250D01*
Y475500D02*Y473250D01*
X250400Y472500D01*
X251150D01*
X251900Y473250D01*
Y475500D02*Y473250D01*
X254450Y474750D02*Y472500D01*
Y474750D02*X255200Y475500D01*
X255950D01*
X256700Y474750D01*
Y472500D01*
X253700Y475500D02*X254450Y474750D01*
X258500Y478500D02*X259250Y477750D01*
Y473250D01*
X258500Y472500D02*X259250Y473250D01*
X263750Y475500D02*X266750D01*
X271250Y478500D02*Y472500D01*
Y478500D02*X274250D01*
X271250Y475800D02*X273500D01*
X278300Y475500D02*X279050Y474750D01*
X276800Y475500D02*X278300D01*
X276050Y474750D02*X276800Y475500D01*
X276050Y474750D02*Y473250D01*
X276800Y472500D01*
X279050Y475500D02*Y473250D01*
X279800Y472500D01*
X276800D02*X278300D01*
X279050Y473250D01*
X281600Y478500D02*Y472500D01*
Y473250D02*X282350Y472500D01*
X283850D01*
X284600Y473250D01*
Y474750D02*Y473250D01*
X283850Y475500D02*X284600Y474750D01*
X282350Y475500D02*X283850D01*
X281600Y474750D02*X282350Y475500D01*
X287150Y474750D02*Y472500D01*
Y474750D02*X287900Y475500D01*
X289400D01*
X286400D02*X287150Y474750D01*
G54D73*X291200Y477000D02*Y476850D01*
G54D72*Y474750D02*Y472500D01*
X293450Y475500D02*X295700D01*
X292700Y474750D02*X293450Y475500D01*
X292700Y474750D02*Y473250D01*
X293450Y472500D01*
X295700D01*
X299750Y475500D02*X300500Y474750D01*
X298250Y475500D02*X299750D01*
X297500Y474750D02*X298250Y475500D01*
X297500Y474750D02*Y473250D01*
X298250Y472500D01*
X300500Y475500D02*Y473250D01*
X301250Y472500D01*
X298250D02*X299750D01*
X300500Y473250D01*
X303800Y478500D02*Y473250D01*
X304550Y472500D01*
X303050Y476250D02*X304550D01*
G54D73*X306050Y477000D02*Y476850D01*
G54D72*Y474750D02*Y472500D01*
X307550Y474750D02*Y473250D01*
Y474750D02*X308300Y475500D01*
X309800D01*
X310550Y474750D01*
Y473250D01*
X309800Y472500D02*X310550Y473250D01*
X308300Y472500D02*X309800D01*
X307550Y473250D02*X308300Y472500D01*
X313100Y474750D02*Y472500D01*
Y474750D02*X313850Y475500D01*
X314600D01*
X315350Y474750D01*
Y472500D01*
X312350Y475500D02*X313100Y474750D01*
X320600Y478500D02*Y472500D01*
X322550Y478500D02*X323600Y477450D01*
Y473550D01*
X322550Y472500D02*X323600Y473550D01*
X319850Y472500D02*X322550D01*
X319850Y478500D02*X322550D01*
X326150Y474750D02*Y472500D01*
Y474750D02*X326900Y475500D01*
X328400D01*
X325400D02*X326150Y474750D01*
X332450Y475500D02*X333200Y474750D01*
X330950Y475500D02*X332450D01*
X330200Y474750D02*X330950Y475500D01*
X330200Y474750D02*Y473250D01*
X330950Y472500D01*
X333200Y475500D02*Y473250D01*
X333950Y472500D01*
X330950D02*X332450D01*
X333200Y473250D01*
X335750Y475500D02*Y473250D01*
X336500Y472500D01*
X337250D01*
X338000Y473250D01*
Y475500D02*Y473250D01*
X338750Y472500D01*
X339500D01*
X340250Y473250D01*
Y475500D02*Y473250D01*
G54D73*X342050Y477000D02*Y476850D01*
G54D72*Y474750D02*Y472500D01*
X344300Y474750D02*Y472500D01*
Y474750D02*X345050Y475500D01*
X345800D01*
X346550Y474750D01*
Y472500D01*
X343550Y475500D02*X344300Y474750D01*
X350600Y475500D02*X351350Y474750D01*
X349100Y475500D02*X350600D01*
X348350Y474750D02*X349100Y475500D01*
X348350Y474750D02*Y473250D01*
X349100Y472500D01*
X350600D01*
X351350Y473250D01*
X348350Y471000D02*X349100Y470250D01*
X350600D01*
X351350Y471000D01*
Y475500D02*Y471000D01*
M02*
